<svg width="96" height="18" viewBox="0 0 96 18" fill="none" xmlns="http://www.w3.org/2000/svg">
<path d="M11.064 14.872L0.84 8.896V7.744L10.992 2.392V4.096L2.664 8.344L11.064 13.048V14.872ZM14.952 17.008L13.536 16.312L21.048 0.0399995L22.488 0.784L14.952 17.008ZM84.96 14.872V13.048L93.336 8.344L85.008 4.096V2.392L95.184 7.744V8.896L84.96 14.872Z" fill="#666666"/>
<path d="M29.616 16.24C28.88 16.24 28.16 16.032 27.456 15.616C26.768 15.184 26.2 14.536 25.752 13.672C25.304 12.808 25.08 11.72 25.08 10.408C25.08 9.064 25.312 7.976 25.776 7.144C26.24 6.312 26.824 5.704 27.528 5.32C28.248 4.936 28.976 4.744 29.712 4.744C30.464 4.744 31.112 4.92 31.656 5.272C32.216 5.608 32.632 6.064 32.904 6.64V0.0399995H34.728V0.207999C34.632 0.303999 34.568 0.408 34.536 0.519999C34.52 0.631999 34.512 0.823999 34.512 1.096L34.536 14.296C34.536 14.584 34.544 14.872 34.56 15.16C34.592 15.432 34.664 15.712 34.776 16H33.072C32.96 15.712 32.888 15.432 32.856 15.16C32.84 14.872 32.832 14.584 32.832 14.296C32.48 14.888 32.032 15.36 31.488 15.712C30.944 16.064 30.32 16.24 29.616 16.24ZM29.88 14.728C30.584 14.728 31.144 14.536 31.56 14.152C31.992 13.768 32.296 13.256 32.472 12.616C32.664 11.96 32.76 11.24 32.76 10.456C32.76 9.224 32.52 8.2 32.04 7.384C31.56 6.568 30.792 6.16 29.736 6.16C28.76 6.16 28.016 6.52 27.504 7.24C27.008 7.96 26.76 8.928 26.76 10.144C26.76 11.52 27.024 12.632 27.552 13.48C28.08 14.312 28.856 14.728 29.88 14.728ZM41.064 16.264C39.816 16.264 38.856 15.984 38.184 15.424C37.512 14.848 37.176 14.12 37.176 13.24C37.176 12.456 37.424 11.784 37.92 11.224C38.416 10.648 39.08 10.208 39.912 9.904C40.76 9.584 41.688 9.424 42.696 9.424C43.064 9.424 43.448 9.432 43.848 9.448C44.264 9.464 44.704 9.504 45.168 9.568C45.072 8.288 44.736 7.408 44.16 6.928C43.6 6.448 42.792 6.208 41.736 6.208C41.208 6.208 40.688 6.312 40.176 6.52C39.664 6.712 39.2 7.016 38.784 7.432L37.944 6.328C38.456 5.816 39.048 5.432 39.72 5.176C40.392 4.92 41.104 4.792 41.856 4.792C42.832 4.792 43.68 4.952 44.4 5.272C45.12 5.592 45.68 6.144 46.08 6.928C46.48 7.712 46.68 8.792 46.68 10.168V16H44.808V14.32C44.536 14.848 44.184 15.256 43.752 15.544C43.336 15.816 42.888 16 42.408 16.096C41.944 16.208 41.496 16.264 41.064 16.264ZM38.904 13.144C38.904 13.832 39.128 14.304 39.576 14.56C40.024 14.816 40.576 14.944 41.232 14.944C42.416 14.944 43.352 14.6 44.04 13.912C44.728 13.208 45.104 12.2 45.168 10.888C44.336 10.776 43.56 10.72 42.84 10.72C41.688 10.72 40.744 10.912 40.008 11.296C39.272 11.68 38.904 12.296 38.904 13.144ZM53.304 16L48.96 5.032H50.688L54.072 13.624L55.848 9.568C56.232 8.688 56.536 7.872 56.76 7.12C57 6.368 57.176 5.672 57.288 5.032H58.92C58.792 5.704 58.592 6.44 58.32 7.24C58.048 8.04 57.712 8.904 57.312 9.832L54.648 16H53.304ZM62.4 16V14.608H65.208V6.424H62.544V5.032H66.936V14.608H69.504V16H62.4ZM65.976 2.728C65.64 2.728 65.352 2.608 65.112 2.368C64.872 2.128 64.752 1.84 64.752 1.504C64.752 1.152 64.864 0.855999 65.088 0.615999C65.328 0.375999 65.624 0.256 65.976 0.256C66.312 0.256 66.6 0.383999 66.84 0.639999C67.096 0.88 67.224 1.168 67.224 1.504C67.224 1.84 67.096 2.128 66.84 2.368C66.6 2.608 66.312 2.728 65.976 2.728ZM77.616 16.24C76.88 16.24 76.16 16.032 75.456 15.616C74.768 15.184 74.2 14.536 73.752 13.672C73.304 12.808 73.08 11.72 73.08 10.408C73.08 9.064 73.312 7.976 73.776 7.144C74.24 6.312 74.824 5.704 75.528 5.32C76.248 4.936 76.976 4.744 77.712 4.744C78.464 4.744 79.112 4.92 79.656 5.272C80.216 5.608 80.632 6.064 80.904 6.64V0.0399995H82.728V0.207999C82.632 0.303999 82.568 0.408 82.536 0.519999C82.52 0.631999 82.512 0.823999 82.512 1.096L82.536 14.296C82.536 14.584 82.544 14.872 82.56 15.16C82.592 15.432 82.664 15.712 82.776 16H81.072C80.96 15.712 80.888 15.432 80.856 15.16C80.84 14.872 80.832 14.584 80.832 14.296C80.48 14.888 80.032 15.36 79.488 15.712C78.944 16.064 78.32 16.24 77.616 16.24ZM77.88 14.728C78.584 14.728 79.144 14.536 79.56 14.152C79.992 13.768 80.296 13.256 80.472 12.616C80.664 11.96 80.76 11.24 80.76 10.456C80.76 9.224 80.52 8.2 80.04 7.384C79.56 6.568 78.792 6.16 77.736 6.16C76.76 6.16 76.016 6.52 75.504 7.24C75.008 7.96 74.76 8.928 74.76 10.144C74.76 11.52 75.024 12.632 75.552 13.48C76.08 14.312 76.856 14.728 77.88 14.728Z" fill="#FBD46D"/>
</svg>
