<svg width="888" height="461" viewBox="0 0 888 461" fill="none" xmlns="http://www.w3.org/2000/svg">
<g id="projects" clip-path="url(#clip0)">
<path id="cloud" d="M382.337 128.242C386.097 128.238 389.733 129.592 392.573 132.056C394.818 131.443 397.171 131.34 399.461 131.754C401.356 129.003 404.082 126.931 407.239 125.839C410.396 124.748 413.819 124.694 417.009 125.687C420.199 126.68 422.987 128.666 424.968 131.357C426.948 134.047 428.016 137.3 428.016 140.641H367.019C367.766 137.133 369.696 133.988 372.484 131.731C375.272 129.474 378.75 128.243 382.337 128.242Z" fill="#ccc" fill-opacity="0.71"/>
<path id="cloud" d="M290.572 171.59C294.127 171.586 297.564 172.867 300.25 175.196C302.371 174.617 304.596 174.519 306.761 174.91C308.553 172.31 311.129 170.35 314.114 169.318C317.099 168.287 320.336 168.236 323.351 169.175C326.367 170.113 329.003 171.991 330.875 174.535C332.747 177.078 333.757 180.154 333.757 183.312H276.09C276.797 179.995 278.621 177.022 281.257 174.889C283.893 172.755 287.181 171.591 290.572 171.59Z" fill="#ccc" fill-opacity="0.61"/>
<path id="cloud" d="M198.824 90.1987C202.523 90.1944 206.099 91.5268 208.893 93.9505C211.101 93.3475 213.416 93.2458 215.668 93.6528C217.532 90.947 220.213 88.9084 223.319 87.8347C226.424 86.7611 229.792 86.7086 232.929 87.6851C236.067 88.6616 238.81 90.6158 240.758 93.2622C242.706 95.9086 243.756 99.1085 243.756 102.394H183.756C184.492 98.9438 186.389 95.85 189.132 93.6302C191.874 91.4105 195.296 90.1991 198.824 90.1987Z" fill="#ccc" fill-opacity="0.61"/>
<g id="background">
<path id="Vector" d="M213.701 452.706L191.827 417.993L213.711 456.488L213.723 460.444C215.284 460.425 216.828 460.365 218.357 460.264L216.573 409.452L216.597 409.059L216.557 408.984L216.387 404.183L239.258 366.136L216.363 400.587L216.295 401.604L214.947 363.214L234.609 323.85L214.793 356.468L213.871 276.895L213.867 276.63L213.864 276.89L213.415 339.628L194.627 314.526L213.432 345.032L213.519 379.394L196.086 346.207L213.529 384.446L213.577 403.553L188.254 357.345L213.597 410.218L213.701 452.706Z" fill="#656565"/>
<path id="Vector_2" d="M401.413 452.706L379.539 417.993L401.423 456.488L401.435 460.444C402.995 460.425 404.54 460.365 406.069 460.264L404.285 409.452L404.309 409.059L404.268 408.984L404.099 404.183L426.97 366.136L404.075 400.587L404.006 401.604L402.659 363.213L422.321 323.85L402.505 356.468L401.583 276.895L401.579 276.63L401.576 276.89L401.127 339.628L382.339 314.526L401.144 345.032L401.231 379.394L383.798 346.207L401.24 384.446L401.289 403.553L375.966 357.345L401.309 410.218L401.413 452.706Z" fill="#656565"/>
<path id="Vector_3" d="M25.8109 454.939L10.0154 429.872L25.8182 457.67L25.8266 460.526C26.9535 460.513 28.069 460.47 29.1731 460.396L27.8848 423.705L27.9017 423.422L27.8727 423.367L27.7501 419.9L44.2655 392.427L27.733 417.304L27.6835 418.038L26.7103 390.317L40.9084 361.892L26.5994 385.445L25.9338 327.986L25.9307 327.795L25.9284 327.983L25.6044 373.286L12.0374 355.159L25.6164 377.188L25.6794 402L13.0912 378.036L25.6863 405.648L25.7211 419.445L7.43555 386.079L25.7355 424.259L25.8109 454.939Z" fill="#656565"/>
<path id="Vector_4" d="M857.945 452.706L836.071 417.993L857.955 456.488L857.967 460.444C859.528 460.425 861.073 460.365 862.602 460.264L860.817 409.452L860.841 409.059L860.801 408.984L860.631 404.183L883.502 366.136L860.607 400.587L860.539 401.604L859.191 363.214L878.853 323.85L859.037 356.468L858.115 276.895L858.111 276.63L858.108 276.89L857.659 339.628L838.871 314.526L857.676 345.032L857.763 379.394L840.33 346.207L857.773 384.446L857.821 403.553L832.498 357.345L857.841 410.218L857.945 452.706Z" fill="#656565"/>
</g>
<g id="car">
<g id="wood">
<path id="Vector_5" d="M264.714 400.295H382.714V395.295H264.714V400.295Z" fill="#656565"/>
<path id="Vector_6" d="M258.714 395.295H376.714V390.295H258.714V395.295Z" fill="#656565"/>
<path id="Vector_7" d="M265.714 390.295H383.714V385.295H265.714V390.295Z" fill="#656565"/>
<path id="Vector_8" d="M277.714 385.295H395.714V380.295H277.714V385.295Z" fill="#656565"/>
</g>
<g id="arm">
<path id="longArm" d="M177.305 357.831L178.846 361.627L330.455 300.091L328.914 296.295L177.305 357.831Z" fill="#222222"/>
<g id="shortArm">
<path id="Vector_9" d="M324.395 400.265C324.356 400.222 324.326 400.172 324.308 400.117C324.29 400.062 324.284 400.004 324.29 399.946L329.941 346.514C329.951 346.414 329.999 346.321 330.073 346.253C330.148 346.186 330.245 346.148 330.346 346.147H330.348C330.449 346.147 330.546 346.185 330.621 346.251C330.696 346.318 330.744 346.411 330.755 346.511L336.866 399.832C336.873 399.889 336.867 399.947 336.85 400.001C336.833 400.056 336.804 400.107 336.766 400.15C336.728 400.193 336.682 400.227 336.629 400.251C336.577 400.275 336.52 400.288 336.463 400.288L324.702 400.399H324.698C324.641 400.399 324.584 400.387 324.532 400.364C324.48 400.341 324.433 400.307 324.395 400.265ZM330.365 350.298L325.154 399.575L336 399.473L330.365 350.298Z" fill="#222222"/>
<path id="Vector_10" d="M328.491 356.151H332.588V296.336H328.491V356.151Z" fill="#222222"/>
</g>
</g>
<path id="Vector_11" d="M101.519 430.717H137.163V416.787H101.519V430.717Z" fill="#222222"/>
<path id="Vector_12" d="M104.797 444.646H280.557V429.078H104.797V444.646Z" fill="#222222"/>
<path id="Vector_13" d="M133.68 436.862H175.879V383.806H144.332L133.68 410.565V436.862Z" fill="#656565"/>
<path id="Vector_14" d="M151.298 405.11H169.324V387.084H151.298V405.11Z" fill="white"/>
<path id="Vector_15" d="M137.777 405.315H149.249V387.289H144.332L137.777 405.315Z" fill="white"/>
<path id="Vector_16" d="M164.408 423.137H168.505V415.352H164.408V423.137Z" fill="#222222"/>
<path id="Vector_17" d="M145.767 406.544H145.562C144.53 406.544 143.54 406.134 142.81 405.404C142.08 404.674 141.67 403.684 141.67 402.652C141.67 401.62 142.08 400.63 142.81 399.9C143.54 399.17 144.53 398.76 145.562 398.76H145.767V406.544Z" fill="#222222"/>
<path id="Vector_18" d="M298.174 436.862H297.969C296.937 436.862 295.947 436.452 295.217 435.722C294.487 434.992 294.077 434.002 294.077 432.97C294.077 431.938 294.487 430.948 295.217 430.218C295.947 429.488 296.937 429.078 297.969 429.078H298.174V436.862V436.862Z" fill="#222222"/>
<path id="Vector_19" d="M117.293 429.019C114.246 429.058 111.247 429.783 108.519 431.141C105.792 432.499 103.405 434.455 101.537 436.862H93.5303L101.315 415.178L137.573 408.027L136.548 436.862H133.048C131.181 434.455 128.794 432.499 126.066 431.141C123.338 429.783 120.34 429.058 117.293 429.019Z" fill="#656565"/>
<path id="Vector_20" d="M116.882 459.805C126.725 459.805 134.704 451.826 134.704 441.983C134.704 432.14 126.725 424.161 116.882 424.161C107.04 424.161 99.0605 432.14 99.0605 441.983C99.0605 451.826 107.04 459.805 116.882 459.805Z" fill="#222222"/>
<path id="Vector_21" d="M116.883 451.363C122.063 451.363 126.263 447.164 126.263 441.983C126.263 436.803 122.063 432.604 116.883 432.604C111.702 432.604 107.503 436.803 107.503 441.983C107.503 447.164 111.702 451.363 116.883 451.363Z" fill="#656565"/>
<path id="Vector_22" d="M277.894 459.6C286.492 459.6 293.462 452.63 293.462 444.031C293.462 435.433 286.492 428.463 277.894 428.463C269.295 428.463 262.325 435.433 262.325 444.031C262.325 452.63 269.295 459.6 277.894 459.6Z" fill="#222222"/>
<path id="Vector_23" d="M277.893 452.226C282.419 452.226 286.087 448.557 286.087 444.032C286.087 439.506 282.419 435.838 277.893 435.838C273.368 435.838 269.699 439.506 269.699 444.032C269.699 448.557 273.368 452.226 277.893 452.226Z" fill="#656565"/>
<path id="Vector_24" d="M174.65 438.501H183.254V376.432H174.65V438.501Z" fill="#222222"/>
<path id="Vector_25" d="M174.65 430.922H298.379V427.235H174.65V430.922Z" fill="#222222"/>
<path id="Vector_26" d="M143.308 407.773H147.405V406.135H143.308V407.773Z" fill="#222222"/>
<path id="Vector_27" d="M101.39 415.494L101.581 415.567C102.547 415.932 103.328 416.666 103.752 417.606C104.177 418.547 104.21 419.618 103.845 420.584C103.48 421.549 102.746 422.33 101.805 422.755C100.864 423.179 99.793 423.213 98.8275 422.847L98.6359 422.775L101.39 415.494Z" fill="#222222"/>
<path id="Vector_28" d="M179.362 364.756C182.53 364.756 185.098 362.188 185.098 359.02C185.098 355.852 182.53 353.284 179.362 353.284C176.194 353.284 173.626 355.852 173.626 359.02C173.626 362.188 176.194 364.756 179.362 364.756Z" fill="#222222"/>
<path id="Vector_29" d="M187.714 427.295H305.714V422.295H187.714V427.295Z" fill="#656565"/>
<path id="Vector_30" d="M194.714 422.295H312.714V417.295H194.714V422.295Z" fill="#656565"/>
<path id="Vector_31" d="M189.714 418.295H307.714V413.295H189.714V418.295Z" fill="#656565"/>
<path id="Vector_32" d="M196.714 413.295H314.714V408.295H196.714V413.295Z" fill="#656565"/>
<path id="Vector_33" d="M177.313 387.289H181.41V358.201H177.313V387.289Z" fill="#222222"/>
</g>
<path id="smoke" d="M519.111 63.9548C519.108 64.0808 519.101 64.2057 519.101 64.3323C519.099 66.6523 519.563 68.9489 520.467 71.0857C521.37 73.2224 522.695 75.1555 524.361 76.7698C524.621 77.3248 524.911 77.8657 525.228 78.3901C524.023 82.0145 523.418 85.8118 523.438 89.6315C523.438 102.805 530.234 113.485 538.618 113.485C547.001 113.485 553.797 102.805 553.797 89.6315C553.803 86.7778 553.471 83.9335 552.808 81.158C555.411 78.3413 557.006 74.7407 557.344 70.9203C557.682 67.0998 556.743 63.2752 554.675 60.0454C556.404 61.5568 558.417 62.7096 560.596 63.4368C562.775 64.1641 565.076 64.4513 567.367 64.2818C569.658 64.1124 571.892 63.4896 573.94 62.4497C575.989 61.4098 577.81 59.9734 579.298 58.2239C580.787 56.4745 581.913 54.4468 582.612 52.2585C583.31 50.0703 583.567 47.7651 583.368 45.4768C583.168 43.1884 582.516 40.9625 581.449 38.9282C580.382 36.8939 578.922 35.0917 577.153 33.6263C580.128 32.5286 582.745 30.6368 584.72 28.1564C586.695 25.676 587.952 22.7018 588.355 19.557C588.759 16.4122 588.293 13.2169 587.008 10.3184C585.723 7.41984 583.668 4.92882 581.067 3.11592C578.466 1.30303 575.418 0.237592 572.253 0.0353407C569.089 -0.166911 565.93 0.501761 563.119 1.96872C560.309 3.43568 557.954 5.64483 556.31 8.35619C554.667 11.0675 553.797 14.1774 553.797 17.348C553.797 17.602 553.806 17.854 553.816 18.1053C551.434 17.3777 548.924 17.1712 546.455 17.4998C543.986 17.8283 541.617 18.6843 539.508 20.0096C537.399 21.3349 535.6 23.0984 534.233 25.1805C532.867 27.2625 531.964 29.6143 531.586 32.0762C529.423 30.789 527.005 29.988 524.501 29.7289C521.997 29.4698 519.467 29.7588 517.085 30.5758C514.704 31.3928 512.529 32.7182 510.712 34.4601C508.894 36.202 507.478 38.3185 506.56 40.6628C505.643 43.0071 505.247 45.523 505.399 48.0358C505.551 50.5486 506.249 52.9981 507.443 55.2143C508.637 57.4305 510.299 59.3602 512.314 60.8696C514.329 62.3789 516.648 63.4317 519.111 63.9548V63.9548ZM548.737 52.0441C548.987 52.0441 549.236 52.0357 549.484 52.0252C549.639 52.538 549.818 53.0399 550.02 53.5312C549.606 53.0101 549.163 52.5132 548.692 52.043L548.737 52.0441Z" fill="#656565" fill-opacity="0.12"/>
<path id="smoke" d="M606.928 133.139C606.926 133.22 606.921 133.301 606.921 133.382C606.92 134.875 607.222 136.352 607.809 137.726C608.396 139.101 609.256 140.344 610.338 141.383C610.507 141.74 610.695 142.088 610.902 142.425C610.118 144.756 609.726 147.199 609.739 149.656C609.739 158.13 614.153 165 619.599 165C625.045 165 629.46 158.13 629.46 149.656C629.464 147.82 629.248 145.991 628.817 144.205C630.508 142.394 631.544 140.077 631.764 137.62C631.983 135.162 631.373 132.702 630.03 130.625C631.153 131.597 632.461 132.338 633.876 132.806C635.291 133.274 636.787 133.459 638.275 133.35C639.763 133.241 641.214 132.84 642.545 132.171C643.875 131.502 645.058 130.578 646.025 129.453C646.992 128.328 647.723 127.023 648.177 125.616C648.631 124.208 648.798 122.725 648.668 121.253C648.539 119.781 648.115 118.349 647.422 117.041C646.729 115.732 645.781 114.573 644.632 113.63C646.564 112.924 648.264 111.707 649.547 110.112C650.83 108.516 651.646 106.603 651.908 104.58C652.17 102.557 651.868 100.502 651.033 98.6374C650.198 96.7729 648.864 95.1705 647.174 94.0043C645.484 92.8382 643.504 92.1528 641.449 92.0227C639.393 91.8926 637.341 92.3228 635.515 93.2664C633.69 94.21 632.16 95.6311 631.092 97.3752C630.024 99.1193 629.46 101.12 629.46 103.159C629.46 103.323 629.465 103.485 629.472 103.646C627.925 103.178 626.294 103.045 624.69 103.257C623.086 103.468 621.547 104.019 620.177 104.871C618.808 105.724 617.639 106.858 616.751 108.198C615.863 109.537 615.277 111.05 615.032 112.633C613.626 111.805 612.056 111.29 610.429 111.123C608.803 110.957 607.159 111.143 605.612 111.668C604.065 112.194 602.652 113.046 601.472 114.167C600.291 115.287 599.371 116.649 598.775 118.157C598.179 119.665 597.922 121.283 598.021 122.899C598.12 124.516 598.573 126.091 599.349 127.517C600.124 128.943 601.204 130.184 602.513 131.155C603.821 132.126 605.328 132.803 606.928 133.139ZM626.173 125.478C626.335 125.478 626.497 125.472 626.658 125.466C626.759 125.795 626.875 126.118 627.006 126.434C626.737 126.099 626.449 125.779 626.144 125.477L626.173 125.478Z" fill="#656565" fill-opacity="0.11"/>
<path id="smoke" d="M725.841 63.9548C725.838 64.0808 725.832 64.2057 725.832 64.3323C725.829 66.6523 726.294 68.9489 727.197 71.0857C728.101 73.2224 729.425 75.1555 731.091 76.7698C731.352 77.3248 731.641 77.8657 731.959 78.3901C730.753 82.0145 730.148 85.8118 730.169 89.6315C730.169 102.805 736.965 113.485 745.348 113.485C753.732 113.485 760.528 102.805 760.528 89.6315C760.534 86.7778 760.202 83.9335 759.538 81.158C762.141 78.3413 763.737 74.7407 764.074 70.9203C764.412 67.0998 763.473 63.2752 761.405 60.0454C763.135 61.5569 765.148 62.7097 767.326 63.4369C769.505 64.1642 771.807 64.4515 774.098 64.282C776.389 64.1126 778.623 63.4898 780.671 62.4499C782.719 61.4099 784.54 59.9736 786.029 58.2241C787.517 56.4746 788.644 54.4469 789.342 52.2586C790.041 50.0704 790.298 47.7652 790.098 45.4768C789.899 43.1884 789.247 40.9625 788.18 38.9282C787.113 36.8939 785.653 35.0917 783.884 33.6263C786.858 32.5286 789.475 30.6368 791.45 28.1564C793.425 25.676 794.682 22.7018 795.086 19.557C795.489 16.4122 795.023 13.2169 793.738 10.3184C792.453 7.41984 790.399 4.92882 787.797 3.11592C785.196 1.30303 782.148 0.237593 778.984 0.0353408C775.82 -0.166911 772.661 0.501761 769.85 1.96872C767.039 3.43568 764.684 5.64483 763.041 8.35619C761.397 11.0675 760.528 14.1774 760.528 17.348C760.528 17.602 760.536 17.854 760.547 18.1053C758.165 17.3777 755.654 17.1712 753.185 17.4998C750.716 17.8283 748.347 18.6843 746.238 20.0096C744.13 21.3349 742.331 23.0984 740.964 25.1805C739.597 27.2625 738.694 29.6143 738.317 32.0762C736.153 30.789 733.736 29.988 731.231 29.7289C728.727 29.4698 726.197 29.7588 723.816 30.5758C721.435 31.3928 719.26 32.7182 717.442 34.4601C715.625 36.202 714.208 38.3185 713.291 40.6628C712.373 43.0071 711.977 45.523 712.13 48.0358C712.282 50.5486 712.979 52.9981 714.174 55.2143C715.368 57.4305 717.03 59.3602 719.045 60.8696C721.059 62.3789 723.379 63.4317 725.841 63.9548ZM755.468 52.0441C755.718 52.0441 755.966 52.0357 756.214 52.0252C756.37 52.5379 756.548 53.0399 756.75 53.5312C756.336 53.0101 755.893 52.5132 755.423 52.043L755.468 52.0441Z" fill="#656565" fill-opacity="0.05"/>
<g id="whiteHouse">
<g id="first">
<path id="Vector_34" d="M498.141 250.82V459H579.092V247.93L560.301 248.6V206.01H516.931V250.15L498.141 250.82Z" fill="#656565"/>
<path id="Vector_35" d="M528.617 321H548.617V301H528.617V321Z" fill="white"/>
<path id="Vector_36" d="M528.617 353H548.617V333H528.617V353Z" fill="white"/>
<path id="Vector_37" d="M528.617 385H548.617V365H528.617V385Z" fill="white"/>
<path id="Vector_38" d="M528.617 417H548.617V397H528.617V417Z" fill="white"/>
<path id="Vector_39" d="M529.941 232.03H547.292L546.672 206.01V206L544.401 110.59C542.66 111.654 540.658 112.217 538.616 112.217C536.575 112.217 534.573 111.654 532.832 110.59L530.562 206V206.01L529.941 232.03Z" fill="#656565"/>
</g>
<g id="second">
<path id="Vector_40" d="M736.674 232.03H754.022L751.131 110.594C747.392 111.937 743.303 111.937 739.565 110.594L736.674 232.03Z" fill="#656565"/>
<path id="Vector_41" d="M704.871 250.82V459H785.831V247.93L779.181 248.17L767.031 248.6V206.01H723.661V250.15L704.871 250.82Z" fill="#656565"/>
<path id="Vector_42" d="M735.182 321H755.182V301H735.182V321Z" fill="white"/>
<path id="Vector_43" d="M735.182 353H755.182V333H735.182V353Z" fill="white"/>
<path id="Vector_44" d="M735.182 385H755.182V365H735.182V385Z" fill="white"/>
<path id="Vector_45" d="M735.182 417H755.182V397H735.182V417Z" fill="white"/>
</g>
<path id="third" d="M594.999 370.091V245.186L606.275 244.783V218.296H614.454V161.692H623.988L624.119 218.296H632.297V243.854L643.573 243.451V370.091H594.999Z" fill="#CCCCCC" fill-opacity="0.85"/>
</g>
<g id="darkHouse">
<path id="Vector_46" d="M568.254 459H715.712V288.411H568.254V459Z" fill="#222222"/>
<path id="Vector_47" d="M663.983 329H683.983V309H663.983V329Z" fill="white"/>
<path id="Vector_48" d="M631.983 329H651.983V309H631.983V329Z" fill="white"/>
<path id="Vector_49" d="M599.983 329H619.983V309H599.983V329Z" fill="white"/>
<path id="Vector_50" d="M663.983 361H683.983V341H663.983V361Z" fill="white"/>
<path id="Vector_51" d="M631.983 361H651.983V341H631.983V361Z" fill="white"/>
<path id="Vector_52" d="M599.983 361H619.983V341H599.983V361Z" fill="white"/>
<path id="Vector_53" d="M663.983 393H683.983V373H663.983V393Z" fill="white"/>
<path id="Vector_54" d="M631.983 393H651.983V373H631.983V393Z" fill="white"/>
<path id="Vector_55" d="M599.983 393H619.983V373H599.983V393Z" fill="white"/>
<path id="Vector_56" d="M888 458.295H0V460.295H888V458.295Z" fill="#222222"/>
<path id="Vector_57" d="M622.105 459H661.861V424.304H622.105V459Z" fill="#656565"/>
</g>
</g>
<defs>
<clipPath id="clip0">
<rect width="888" height="460.526" fill="white"/>
</clipPath>
</defs>
</svg>
