<svg width="926" height="646" viewBox="0 0 926 646" fill="none" xmlns="http://www.w3.org/2000/svg">
<g id="skills" clip-path="url(#clip0)">
<g id="background">
<path id="Vector" d="M233.089 346.865C243.255 346.865 251.497 338.624 251.497 328.457C251.497 318.29 243.255 310.048 233.089 310.048C222.922 310.048 214.68 318.29 214.68 328.457C214.68 338.624 222.922 346.865 233.089 346.865Z" fill="#F2F2F2"/>
<path id="Vector_2" d="M519.997 21.5H379.997V23.5H519.997V21.5Z" fill="#F2F2F2"/>
<path id="Vector_3" d="M419.997 3.5H417.997V22H419.997V3.5Z" fill="#F2F2F2"/>
<path id="Vector_4" d="M480.997 3.5H478.997V22H480.997V3.5Z" fill="#F2F2F2"/>
<path id="Vector_5" d="M745.997 505.5H605.997V507.5H745.997V505.5Z" fill="#F2F2F2"/>
<path id="Vector_6" d="M645.997 487.5H643.997V506H645.997V487.5Z" fill="#F2F2F2"/>
<path id="Vector_7" d="M706.997 487.5H704.997V506H706.997V487.5Z" fill="#F2F2F2"/>
<path id="Vector_8" d="M752.997 200.5H612.997V202.5H752.997V200.5Z" fill="#F2F2F2"/>
<path id="Vector_9" d="M652.997 182.5H650.997V201H652.997V182.5Z" fill="#F2F2F2"/>
<path id="Vector_10" d="M713.997 182.5H711.997V201H713.997V182.5Z" fill="#F2F2F2"/>
<path id="Vector_11" d="M752.997 128.5H612.997V130.5H752.997V128.5Z" fill="#F2F2F2"/>
<path id="Vector_12" d="M652.997 110.5H650.997V129H652.997V110.5Z" fill="#F2F2F2"/>
<path id="Vector_13" d="M713.997 110.5H711.997V129H713.997V110.5Z" fill="#F2F2F2"/>
<path id="Vector_14" d="M445.997 138.5H305.997V140.5H445.997V138.5Z" fill="#F2F2F2"/>
<path id="Vector_15" d="M345.997 120.5H343.997V139H345.997V120.5Z" fill="#F2F2F2"/>
<path id="Vector_16" d="M406.997 120.5H404.997V139H406.997V120.5Z" fill="#F2F2F2"/>
<path id="Vector_17" d="M343.997 91.5H203.997V93.5H343.997V91.5Z" fill="#F2F2F2"/>
<path id="Vector_18" d="M243.997 73.5H241.997V92H243.997V73.5Z" fill="#F2F2F2"/>
<path id="Vector_19" d="M304.997 73.5H302.997V92H304.997V73.5Z" fill="#F2F2F2"/>
<path id="Vector_20" d="M280.997 276.5H140.997V278.5H280.997V276.5Z" fill="#F2F2F2"/>
<path id="Vector_21" d="M180.997 258.5H178.997V277H180.997V258.5Z" fill="#F2F2F2"/>
<path id="Vector_22" d="M241.997 258.5H239.997V277H241.997V258.5Z" fill="#F2F2F2"/>
<path id="Vector_23" d="M210.997 480.5H70.9971V482.5H210.997V480.5Z" fill="#F2F2F2"/>
<path id="Vector_24" d="M110.997 462.5H108.997V481H110.997V462.5Z" fill="#F2F2F2"/>
<path id="Vector_25" d="M171.997 462.5H169.997V481H171.997V462.5Z" fill="#F2F2F2"/>
<path id="Vector_26" d="M872.997 396.5H732.997V398.5H872.997V396.5Z" fill="#F2F2F2"/>
<path id="Vector_27" d="M772.997 378.5H770.997V397H772.997V378.5Z" fill="#F2F2F2"/>
<path id="Vector_28" d="M833.997 378.5H831.997V397H833.997V378.5Z" fill="#F2F2F2"/>
<path id="Vector_29" d="M831.997 268.5H691.997V270.5H831.997V268.5Z" fill="#F2F2F2"/>
<path id="Vector_30" d="M793.997 270H791.997V288.5H793.997V270Z" fill="#F2F2F2"/>
<path id="Vector_31" d="M732.997 270H730.997V288.5H732.997V270Z" fill="#F2F2F2"/>
<path id="Vector_32" d="M153.997 118.5H13.9971V120.5H153.997V118.5Z" fill="#F2F2F2"/>
<path id="Vector_33" d="M115.997 120H113.997V138.5H115.997V120Z" fill="#F2F2F2"/>
<path id="Vector_34" d="M54.9971 120H52.9971V138.5H54.9971V120Z" fill="#F2F2F2"/>
<path id="Vector_35" d="M162.997 380.5H22.9971V382.5H162.997V380.5Z" fill="#F2F2F2"/>
<path id="Vector_36" d="M124.997 382H122.997V400.5H124.997V382Z" fill="#F2F2F2"/>
<path id="Vector_37" d="M63.9971 382H61.9971V400.5H63.9971V382Z" fill="#F2F2F2"/>
<path id="Vector_38" d="M603.997 53.5H463.997V55.5H603.997V53.5Z" fill="#F2F2F2"/>
<path id="Vector_39" d="M565.997 55H563.997V73.5H565.997V55Z" fill="#F2F2F2"/>
<path id="Vector_40" d="M504.997 55H502.997V73.5H504.997V55Z" fill="#F2F2F2"/>
<path id="Vector_41" d="M210.997 192.5H70.9971V194.5H210.997V192.5Z" fill="#F2F2F2"/>
<path id="Vector_42" d="M110.997 174.5H108.997V193H110.997V174.5Z" fill="#F2F2F2"/>
<path id="Vector_43" d="M171.997 174.5H169.997V193H171.997V174.5Z" fill="#F2F2F2"/>
</g>
<g id="floor">
<path id="Vector_44" d="M37.2549 603.797C44.1689 629.356 67.8508 645.184 67.8508 645.184C67.8508 645.184 80.323 619.575 73.409 594.017C66.4951 568.459 42.8131 552.63 42.8131 552.63C42.8131 552.63 30.3409 578.239 37.2549 603.797Z" fill="#3F3D56"/>
<path id="Vector_45" d="M47.4146 598.305C66.3867 616.773 68.7039 645.164 68.7039 645.164C68.7039 645.164 40.2614 643.611 21.2894 625.142C2.3173 606.674 0 578.283 0 578.283C0 578.283 28.4425 579.836 47.4146 598.305Z" fill="#FBD46D"/>
<path id="Vector_46" d="M925.497 643H16.4971V645H925.497V643Z" fill="#3F3D56"/>
</g>
<g id="board">
<path id="Vector_47" d="M191.997 581.338C191.992 576.906 190.65 572.579 188.146 568.922C185.643 565.265 182.095 562.447 177.966 560.838C182.749 558.979 186.732 555.507 189.225 551.022C191.719 546.537 192.566 541.322 191.62 536.278C190.675 531.235 187.996 526.68 184.047 523.403C180.099 520.126 175.129 518.332 169.997 518.332C164.866 518.332 159.896 520.126 155.947 523.403C151.998 526.68 149.319 531.235 148.374 536.278C147.428 541.322 148.276 546.537 150.769 551.022C153.262 555.507 157.245 558.979 162.028 560.838C157.896 562.443 154.345 565.259 151.841 568.917C149.337 572.575 147.997 576.905 147.997 581.338C147.997 585.771 149.337 590.101 151.841 593.759C154.345 597.417 157.896 600.233 162.028 601.838C157.245 603.697 153.262 607.169 150.769 611.654C148.276 616.139 147.428 621.354 148.374 626.398C149.319 631.442 151.998 635.996 155.947 639.273C159.896 642.55 164.866 644.344 169.997 644.344C175.129 644.344 180.099 642.55 184.047 639.273C187.996 635.996 190.675 631.442 191.62 626.398C192.566 621.354 191.719 616.139 189.225 611.654C186.732 607.169 182.749 603.697 177.966 601.838C182.095 600.229 185.643 597.411 188.146 593.754C190.65 590.097 191.992 585.77 191.997 581.338V581.338ZM149.997 540.338C149.994 536.575 151.052 532.888 153.051 529.7C155.049 526.512 157.906 523.952 161.294 522.314C164.681 520.677 168.462 520.028 172.202 520.443C175.942 520.858 179.489 522.319 182.435 524.659C185.382 526.999 187.608 530.123 188.859 533.672C190.11 537.221 190.335 541.05 189.507 544.721C188.68 548.391 186.833 551.754 184.18 554.422C181.528 557.09 178.176 558.956 174.51 559.805C171.534 559.182 168.461 559.182 165.484 559.805C161.086 558.783 157.162 556.303 154.35 552.769C151.539 549.235 150.005 544.854 149.997 540.338V540.338ZM189.997 622.338C190 626.101 188.942 629.788 186.944 632.976C184.945 636.165 182.088 638.724 178.701 640.362C175.313 641.999 171.532 642.648 167.792 642.233C164.052 641.818 160.506 640.357 157.559 638.017C154.612 635.677 152.386 632.553 151.135 629.004C149.884 625.456 149.659 621.626 150.487 617.956C151.315 614.285 153.161 610.922 155.814 608.254C158.467 605.586 161.819 603.72 165.484 602.871C168.461 603.494 171.534 603.494 174.51 602.871C178.909 603.893 182.832 606.373 185.644 609.907C188.455 613.441 189.99 617.822 189.997 622.338V622.338ZM174.51 600.805C171.534 600.182 168.461 600.182 165.484 600.805C161.082 599.79 157.154 597.312 154.341 593.776C151.528 590.241 149.997 585.856 149.997 581.338C149.997 576.82 151.528 572.436 154.341 568.9C157.154 565.364 161.082 562.886 165.484 561.871C168.461 562.494 171.534 562.494 174.51 561.871C178.912 562.886 182.84 565.364 185.653 568.9C188.466 572.436 189.997 576.82 189.997 581.338C189.997 585.856 188.466 590.241 185.653 593.776C182.84 597.312 178.912 599.79 174.51 600.805V600.805Z" fill="#3F3D56"/>
<path id="Vector_48" d="M233.497 173V644H669.497V173H233.497ZM451.497 207C448.53 207 445.63 206.12 443.163 204.472C440.697 202.824 438.774 200.481 437.639 197.74C436.504 194.999 436.207 191.983 436.785 189.074C437.364 186.164 438.793 183.491 440.89 181.393C442.988 179.296 445.661 177.867 448.571 177.288C451.48 176.709 454.496 177.007 457.237 178.142C459.978 179.277 462.321 181.2 463.969 183.666C465.617 186.133 466.497 189.033 466.497 192C466.497 195.978 464.917 199.794 462.104 202.607C459.291 205.42 455.475 207 451.497 207V207Z" fill="#3F3D56"/>
<path id="Vector_49" d="M451.497 199C455.363 199 458.497 195.866 458.497 192C458.497 188.134 455.363 185 451.497 185C447.631 185 444.497 188.134 444.497 192C444.497 195.866 447.631 199 451.497 199Z" fill="#3F3D56"/>
<path id="Vector_50" d="M451.497 14C455.363 14 458.497 10.866 458.497 7C458.497 3.13401 455.363 0 451.497 0C447.631 0 444.497 3.13401 444.497 7C444.497 10.866 447.631 14 451.497 14Z" fill="#3F3D56"/>
<path id="Vector_51" d="M452.497 7H450.497V192H452.497V7Z" fill="#3F3D56"/>
<path id="Vector_52" d="M510.997 271.5H281.997C280.141 271.5 278.36 270.763 277.047 269.45C275.735 268.137 274.997 266.357 274.997 264.5C274.997 262.643 275.735 260.863 277.047 259.55C278.36 258.238 280.141 257.5 281.997 257.5H510.997C512.854 257.5 514.634 258.238 515.947 259.55C517.26 260.863 517.997 262.643 517.997 264.5C517.997 266.357 517.26 268.137 515.947 269.45C514.634 270.763 512.854 271.5 510.997 271.5V271.5Z" fill="#F2F2F2"/>
<path id="Vector_53" d="M510.997 343.5H281.997C280.141 343.5 278.36 342.763 277.047 341.45C275.735 340.137 274.997 338.357 274.997 336.5C274.997 334.643 275.735 332.863 277.047 331.55C278.36 330.238 280.141 329.5 281.997 329.5H510.997C512.854 329.5 514.634 330.238 515.947 331.55C517.26 332.863 517.997 334.643 517.997 336.5C517.997 338.357 517.26 340.137 515.947 341.45C514.634 342.763 512.854 343.5 510.997 343.5Z" fill="#F2F2F2"/>
<path id="Vector_54" d="M510.997 415.5H281.997C280.141 415.5 278.36 414.763 277.047 413.45C275.735 412.137 274.997 410.357 274.997 408.5C274.997 406.643 275.735 404.863 277.047 403.55C278.36 402.238 280.141 401.5 281.997 401.5H510.997C512.854 401.5 514.634 402.238 515.947 403.55C517.26 404.863 517.997 406.643 517.997 408.5C517.997 410.357 517.26 412.137 515.947 413.45C514.634 414.763 512.854 415.5 510.997 415.5Z" fill="#F2F2F2"/>
<path id="Vector_55" d="M510.997 487.5H281.997C280.141 487.5 278.36 486.763 277.047 485.45C275.735 484.137 274.997 482.357 274.997 480.5C274.997 478.643 275.735 476.863 277.047 475.55C278.36 474.238 280.141 473.5 281.997 473.5H510.997C512.854 473.5 514.634 474.238 515.947 475.55C517.26 476.863 517.997 478.643 517.997 480.5C517.997 482.357 517.26 484.137 515.947 485.45C514.634 486.763 512.854 487.5 510.997 487.5V487.5Z" fill="#F2F2F2"/>
<path id="Vector_56" d="M510.997 559.5H281.997C280.141 559.5 278.36 558.763 277.047 557.45C275.735 556.137 274.997 554.357 274.997 552.5C274.997 550.643 275.735 548.863 277.047 547.55C278.36 546.238 280.141 545.5 281.997 545.5H510.997C512.854 545.5 514.634 546.238 515.947 547.55C517.26 548.863 517.997 550.643 517.997 552.5C517.997 554.357 517.26 556.137 515.947 557.45C514.634 558.763 512.854 559.5 510.997 559.5Z" fill="#F2F2F2"/>
<path id="Vector_57" d="M605.997 257.5H603.997V271.5H605.997V257.5Z" fill="#FBD46D"/>
<path id="Vector_58" d="M620.997 272.5C619.415 272.5 617.868 272.031 616.553 271.152C615.237 270.273 614.212 269.023 613.606 267.561C613.001 266.1 612.842 264.491 613.151 262.939C613.459 261.387 614.221 259.962 615.34 258.843C616.459 257.724 617.885 256.962 619.436 256.654C620.988 256.345 622.597 256.503 624.059 257.109C625.52 257.714 626.77 258.74 627.649 260.055C628.528 261.371 628.997 262.918 628.997 264.5C628.995 266.621 628.151 268.654 626.651 270.154C625.151 271.654 623.118 272.498 620.997 272.5V272.5ZM620.997 258.5C619.81 258.5 618.65 258.852 617.664 259.511C616.677 260.17 615.908 261.108 615.454 262.204C615 263.3 614.881 264.507 615.112 265.671C615.344 266.834 615.915 267.904 616.754 268.743C617.594 269.582 618.663 270.153 619.827 270.385C620.99 270.616 622.197 270.497 623.293 270.043C624.39 269.589 625.327 268.82 625.986 267.833C626.645 266.847 626.997 265.687 626.997 264.5C626.995 262.909 626.363 261.384 625.238 260.259C624.113 259.134 622.588 258.502 620.997 258.5V258.5Z" fill="#FBD46D"/>
<path id="Vector_59" d="M605.997 329.5H603.997V343.5H605.997V329.5Z" fill="#FBD46D"/>
<path id="Vector_60" d="M620.997 344.5C619.415 344.5 617.868 344.031 616.553 343.152C615.237 342.273 614.212 341.023 613.606 339.561C613.001 338.1 612.842 336.491 613.151 334.939C613.459 333.387 614.221 331.962 615.34 330.843C616.459 329.724 617.885 328.962 619.436 328.654C620.988 328.345 622.597 328.503 624.059 329.109C625.52 329.714 626.77 330.74 627.649 332.055C628.528 333.371 628.997 334.918 628.997 336.5C628.995 338.621 628.151 340.654 626.651 342.154C625.151 343.654 623.118 344.498 620.997 344.5ZM620.997 330.5C619.81 330.5 618.65 330.852 617.664 331.511C616.677 332.17 615.908 333.108 615.454 334.204C615 335.3 614.881 336.507 615.112 337.671C615.344 338.834 615.915 339.904 616.754 340.743C617.594 341.582 618.663 342.153 619.827 342.385C620.99 342.616 622.197 342.497 623.293 342.043C624.39 341.589 625.327 340.82 625.986 339.833C626.645 338.847 626.997 337.687 626.997 336.5C626.995 334.909 626.363 333.384 625.238 332.259C624.113 331.134 622.588 330.502 620.997 330.5V330.5Z" fill="#FBD46D"/>
<path id="Vector_61" d="M605.997 401.5H603.997V415.5H605.997V401.5Z" fill="#FBD46D"/>
<path id="Vector_62" d="M620.997 416.5C619.415 416.5 617.868 416.031 616.553 415.152C615.237 414.273 614.212 413.023 613.606 411.561C613.001 410.1 612.842 408.491 613.151 406.939C613.459 405.387 614.221 403.962 615.34 402.843C616.459 401.724 617.885 400.962 619.436 400.654C620.988 400.345 622.597 400.503 624.059 401.109C625.52 401.714 626.77 402.74 627.649 404.055C628.528 405.371 628.997 406.918 628.997 408.5C628.995 410.621 628.151 412.654 626.651 414.154C625.151 415.654 623.118 416.498 620.997 416.5V416.5ZM620.997 402.5C619.81 402.5 618.65 402.852 617.664 403.511C616.677 404.17 615.908 405.108 615.454 406.204C615 407.3 614.881 408.507 615.112 409.671C615.344 410.834 615.915 411.904 616.754 412.743C617.594 413.582 618.663 414.153 619.827 414.385C620.99 414.616 622.197 414.497 623.293 414.043C624.39 413.589 625.327 412.82 625.986 411.833C626.645 410.847 626.997 409.687 626.997 408.5C626.995 406.909 626.363 405.384 625.238 404.259C624.113 403.134 622.588 402.502 620.997 402.5V402.5Z" fill="#FBD46D"/>
<path id="Vector_63" d="M605.997 473.5H603.997V487.5H605.997V473.5Z" fill="#FBD46D"/>
<path id="Vector_64" d="M620.997 488.5C619.415 488.5 617.868 488.031 616.553 487.152C615.237 486.273 614.212 485.023 613.606 483.561C613.001 482.1 612.842 480.491 613.151 478.939C613.459 477.387 614.221 475.962 615.34 474.843C616.459 473.724 617.885 472.962 619.436 472.654C620.988 472.345 622.597 472.503 624.059 473.109C625.52 473.714 626.77 474.74 627.649 476.055C628.528 477.371 628.997 478.918 628.997 480.5C628.995 482.621 628.151 484.654 626.651 486.154C625.151 487.654 623.118 488.498 620.997 488.5V488.5ZM620.997 474.5C619.81 474.5 618.65 474.852 617.664 475.511C616.677 476.17 615.908 477.108 615.454 478.204C615 479.3 614.881 480.507 615.112 481.671C615.344 482.834 615.915 483.904 616.754 484.743C617.594 485.582 618.663 486.153 619.827 486.385C620.99 486.616 622.197 486.497 623.293 486.043C624.39 485.589 625.327 484.82 625.986 483.833C626.645 482.847 626.997 481.687 626.997 480.5C626.995 478.909 626.363 477.384 625.238 476.259C624.113 475.134 622.588 474.502 620.997 474.5Z" fill="#FBD46D"/>
<path id="Vector_65" d="M605.997 545.5H603.997V559.5H605.997V545.5Z" fill="#FBD46D"/>
<path id="Vector_66" d="M620.997 560.5C619.415 560.5 617.868 560.031 616.553 559.152C615.237 558.273 614.212 557.023 613.606 555.561C613.001 554.1 612.842 552.491 613.151 550.939C613.459 549.387 614.221 547.962 615.34 546.843C616.459 545.724 617.885 544.962 619.436 544.654C620.988 544.345 622.597 544.503 624.059 545.109C625.52 545.714 626.77 546.74 627.649 548.055C628.528 549.371 628.997 550.918 628.997 552.5C628.995 554.621 628.151 556.654 626.651 558.154C625.151 559.654 623.118 560.498 620.997 560.5V560.5ZM620.997 546.5C619.81 546.5 618.65 546.852 617.664 547.511C616.677 548.17 615.908 549.108 615.454 550.204C615 551.3 614.881 552.507 615.112 553.671C615.344 554.834 615.915 555.904 616.754 556.743C617.594 557.582 618.663 558.153 619.827 558.385C620.99 558.616 622.197 558.497 623.293 558.043C624.39 557.589 625.327 556.82 625.986 555.833C626.645 554.847 626.997 553.687 626.997 552.5C626.995 550.909 626.363 549.384 625.238 548.259C624.113 547.134 622.588 546.502 620.997 546.5Z" fill="#FBD46D"/>
</g>
<g id="backend">
<path id="backend-btn" d="M170.409 592.818C176.71 592.818 181.818 587.71 181.818 581.409C181.818 575.108 176.71 570 170.409 570C164.108 570 159 575.108 159 581.409C159 587.71 164.108 592.818 170.409 592.818Z" fill="#FBD46D"/>
<g id="lines">
<path id="Vector_67" d="M346.424 271.5H276.571C275.888 271.5 275.233 270.763 274.751 269.45C274.268 268.137 273.997 266.357 273.997 264.5C273.997 262.643 274.268 260.863 274.751 259.55C275.233 258.238 275.888 257.5 276.571 257.5H346.424C347.106 257.5 347.761 258.238 348.243 259.55C348.726 260.863 348.997 262.643 348.997 264.5C348.997 266.357 348.726 268.137 348.243 269.45C347.761 270.763 347.106 271.5 346.424 271.5V271.5Z" fill="#FBD46D"/>
<path id="Vector_68" d="M473.859 343.5H284.135C281.446 343.5 278.868 342.763 276.966 341.45C275.065 340.137 273.997 338.357 273.997 336.5C273.997 334.643 275.065 332.863 276.966 331.55C278.868 330.238 281.446 329.5 284.135 329.5H473.859C476.548 329.5 479.127 330.238 481.028 331.55C482.929 332.863 483.997 334.643 483.997 336.5C483.997 338.357 482.929 340.137 481.028 341.45C479.127 342.763 476.548 343.5 473.859 343.5Z" fill="#FBD46D"/>
<path id="Vector_69" d="M454.825 415.5H283.169C280.737 415.5 278.404 414.763 276.684 413.45C274.963 412.137 273.997 410.357 273.997 408.5C273.997 406.643 274.963 404.863 276.684 403.55C278.404 402.238 280.737 401.5 283.169 401.5H454.825C457.257 401.5 459.59 402.238 461.311 403.55C463.031 404.863 463.997 406.643 463.997 408.5C463.997 410.357 463.031 412.137 461.311 413.45C459.59 414.763 457.257 415.5 454.825 415.5Z" fill="#FBD46D"/>
<path id="Vector_70" d="M369.875 487.5H277.119C276.291 487.5 275.497 486.763 274.911 485.45C274.326 484.137 273.997 482.357 273.997 480.5C273.997 478.643 274.326 476.863 274.911 475.55C275.497 474.238 276.291 473.5 277.119 473.5H369.875C370.703 473.5 371.497 474.238 372.083 475.55C372.668 476.863 372.997 478.643 372.997 480.5C372.997 482.357 372.668 484.137 372.083 485.45C371.497 486.763 370.703 487.5 369.875 487.5V487.5Z" fill="#FBD46D"/>
<path id="Vector_71" d="M422.832 559.5H280.162C278.527 559.5 276.959 558.763 275.803 557.45C274.647 556.137 273.997 554.357 273.997 552.5C273.997 550.643 274.647 548.863 275.803 547.55C276.959 546.238 278.527 545.5 280.162 545.5H422.832C424.467 545.5 426.035 546.238 427.191 547.55C428.348 548.863 428.997 550.643 428.997 552.5C428.997 554.357 428.348 556.137 427.191 557.45C426.035 558.763 424.467 559.5 422.832 559.5V559.5Z" fill="#FBD46D"/>
</g>
<path id="Vector_72" d="M621 412.5C623.209 412.5 625 410.709 625 408.5C625 406.291 623.209 404.5 621 404.5C618.791 404.5 617 406.291 617 408.5C617 410.709 618.791 412.5 621 412.5Z" fill="#FBD46D"/>
<path id="Vector_73" d="M621 340.5C623.209 340.5 625 338.709 625 336.5C625 334.291 623.209 332.5 621 332.5C618.791 332.5 617 334.291 617 336.5C617 338.709 618.791 340.5 621 340.5Z" fill="#FBD46D"/>
<path id="Vector_74" d="M620.997 556.5C623.206 556.5 624.997 554.709 624.997 552.5C624.997 550.291 623.206 548.5 620.997 548.5C618.788 548.5 616.997 550.291 616.997 552.5C616.997 554.709 618.788 556.5 620.997 556.5Z" fill="#FBD46D"/>
</g>
<g id="frontend">
<path id="frontend-btn" d="M170.089 551.865C176.389 551.865 181.497 546.758 181.497 540.457C181.497 534.156 176.389 529.048 170.089 529.048C163.788 529.048 158.68 534.156 158.68 540.457C158.68 546.758 163.788 551.865 170.089 551.865Z" fill="#FBD46D"/>
<g id="lines">
<path id="Vector_75" d="M470.997 271.5H280.997C279.141 271.5 277.36 270.763 276.047 269.45C274.735 268.137 273.997 266.357 273.997 264.5C273.997 262.643 274.735 260.863 276.047 259.55C277.36 258.238 279.141 257.5 280.997 257.5H470.997C472.854 257.5 474.634 258.238 475.947 259.55C477.26 260.863 477.997 262.643 477.997 264.5C477.997 266.357 477.26 268.137 475.947 269.45C474.634 270.763 472.854 271.5 470.997 271.5V271.5Z" fill="#FBD46D"/>
<path id="Vector_76" d="M411.997 343.5H280.997C279.141 343.5 277.36 342.763 276.047 341.45C274.735 340.137 273.997 338.357 273.997 336.5C273.997 334.643 274.735 332.863 276.047 331.55C277.36 330.238 279.141 329.5 280.997 329.5H411.997C413.854 329.5 415.634 330.238 416.947 331.55C418.26 332.863 418.997 334.643 418.997 336.5C418.997 338.357 418.26 340.137 416.947 341.45C415.634 342.763 413.854 343.5 411.997 343.5Z" fill="#FBD46D"/>
<path id="Vector_77" d="M339.997 415.5H280.997C279.141 415.5 277.36 414.763 276.047 413.45C274.735 412.137 273.997 410.357 273.997 408.5C273.997 406.643 274.735 404.863 276.047 403.55C277.36 402.238 279.141 401.5 280.997 401.5H339.997C341.854 401.5 343.634 402.238 344.947 403.55C346.26 404.863 346.997 406.643 346.997 408.5C346.997 410.357 346.26 412.137 344.947 413.45C343.634 414.763 341.854 415.5 339.997 415.5V415.5Z" fill="#FBD46D"/>
<path id="Vector_78" d="M488.997 487.5H280.997C279.141 487.5 277.36 486.763 276.047 485.45C274.735 484.137 273.997 482.357 273.997 480.5C273.997 478.643 274.735 476.863 276.047 475.55C277.36 474.238 279.141 473.5 280.997 473.5H488.997C490.854 473.5 492.634 474.238 493.947 475.55C495.26 476.863 495.997 478.643 495.997 480.5C495.997 482.357 495.26 484.137 493.947 485.45C492.634 486.763 490.854 487.5 488.997 487.5V487.5Z" fill="#FBD46D"/>
<path id="Vector_79" d="M442.997 559.5H280.997C279.141 559.5 277.36 558.763 276.047 557.45C274.735 556.137 273.997 554.357 273.997 552.5C273.997 550.643 274.735 548.863 276.047 547.55C277.36 546.238 279.141 545.5 280.997 545.5H442.997C444.854 545.5 446.634 546.238 447.947 547.55C449.26 548.863 449.997 550.643 449.997 552.5C449.997 554.357 449.26 556.137 447.947 557.45C446.634 558.763 444.854 559.5 442.997 559.5V559.5Z" fill="#FBD46D"/>
</g>
<path id="Vector_80" d="M620.997 268.5C623.206 268.5 624.997 266.709 624.997 264.5C624.997 262.291 623.206 260.5 620.997 260.5C618.788 260.5 616.997 262.291 616.997 264.5C616.997 266.709 618.788 268.5 620.997 268.5Z" fill="#FBD46D"/>
<path id="Vector_81" d="M620.997 484.5C623.206 484.5 624.997 482.709 624.997 480.5C624.997 478.291 623.206 476.5 620.997 476.5C618.788 476.5 616.997 478.291 616.997 480.5C616.997 482.709 618.788 484.5 620.997 484.5Z" fill="#FBD46D"/>
<path id="Vector_82" d="M620.997 556.5C623.206 556.5 624.997 554.709 624.997 552.5C624.997 550.291 623.206 548.5 620.997 548.5C618.788 548.5 616.997 550.291 616.997 552.5C616.997 554.709 618.788 556.5 620.997 556.5Z" fill="#FBD46D"/>
</g>
<g id="man">
<path id="Vector_83" d="M856.614 384.479V409.254C856.614 409.254 862.578 449.169 862.578 484.037C862.578 518.906 852.944 600.112 852.944 600.112C852.944 600.112 833.674 606.994 832.298 596.442C830.921 585.89 827.251 529.917 827.251 521.658C827.251 513.4 811.193 450.545 811.193 450.545L801.1 520.282C801.1 520.282 804.311 602.865 801.1 605.159C797.888 607.453 782.289 611.582 780.454 607.453C778.619 603.324 768.984 514.776 768.984 514.776C768.984 514.776 761.185 399.16 765.773 392.278C770.361 385.396 774.49 379.891 774.49 379.891C774.49 379.891 840.097 363.833 856.614 384.479Z" fill="#2F2E41"/>
<path id="Vector_84" d="M850.649 597.359L851.799 604.838C852.185 607.389 852.436 609.959 852.551 612.537C852.73 616.294 853.356 622.082 855.497 623C858.708 624.376 879.553 641.956 864.871 642.873C850.19 643.791 842.845 645.376 838.497 642C833.356 638.008 839.179 639.816 836.885 639.816C834.591 639.816 831.838 639.816 830.921 636.145C830.003 632.475 832.297 626.052 832.297 626.052V597.359H850.649Z" fill="#2F2E41"/>
<path id="Vector_85" d="M782.145 597L780.995 604.479C780.609 607.03 780.358 609.6 780.243 612.178C780.064 615.935 779.439 621.723 777.298 622.641C774.086 624.017 753.241 641.597 767.923 642.514C782.604 643.432 789.949 645.017 794.298 641.641C799.439 637.649 793.615 639.456 795.909 639.456C798.203 639.456 800.956 639.456 801.873 635.786C802.791 632.116 800.497 625.693 800.497 625.693V597H782.145Z" fill="#2F2E41"/>
<path id="Vector_86" d="M795.135 185.362C795.135 185.362 802.934 204.632 808.44 207.843C813.945 211.055 811.193 225.736 811.193 225.736L797.429 245.006H786.418L773.113 222.066C773.113 222.066 772.195 206.926 769.443 203.255C766.69 199.585 795.135 185.362 795.135 185.362Z" fill="#FFB9B9"/>
<path id="Vector_87" opacity="0.1" d="M795.135 185.362C795.135 185.362 802.934 204.632 808.44 207.843C813.945 211.055 811.193 225.736 811.193 225.736L797.429 245.006H786.418L773.113 222.066C773.113 222.066 772.195 206.926 769.443 203.255C766.69 199.585 795.135 185.362 795.135 185.362Z" fill="black"/>
<path id="Vector_88" d="M806.605 224.818L827.25 229.406L842.391 381.726C842.391 381.726 834.132 383.102 825.874 394.113C817.616 405.124 807.522 403.289 802.476 400.536C797.429 397.784 777.242 389.984 776.783 386.773C776.324 383.561 777.701 327.129 777.701 327.129L764.854 239.041L771.278 229.406H782.747L791.923 237.206L806.605 224.818Z" fill="#FBD46D"/>
<path id="Vector_89" d="M775.407 209.219C788.583 209.219 799.264 198.538 799.264 185.362C799.264 172.186 788.583 161.505 775.407 161.505C762.231 161.505 751.55 172.186 751.55 185.362C751.55 198.538 762.231 209.219 775.407 209.219Z" fill="#FFB9B9"/>
<path id="Vector_90" d="M809.817 217.02C809.817 217.02 854.778 221.607 858.908 231.242C863.037 240.877 856.155 283.545 856.155 283.545C856.155 283.545 872.671 320.707 872.213 329.424C871.754 338.141 887.812 397.784 870.377 390.902C852.943 384.021 858.449 366.128 849.732 378.974C841.015 391.82 837.344 389.985 837.344 389.985C837.344 389.985 828.627 404.207 825.874 402.831C823.122 401.455 821.286 390.902 827.251 385.856C833.215 380.809 832.297 372.092 820.828 355.575C809.358 339.059 797.429 252.347 804.311 239.042C811.193 225.737 809.817 217.02 809.817 217.02Z" fill="#575A89"/>
<path id="Vector_91" d="M856.614 393.196L848.814 400.536L839.179 394.114L843.309 384.479L856.614 393.196Z" fill="#FFB9B9"/>
<path id="Vector_92" d="M776.783 224.818C776.783 224.818 741.915 237.665 741.915 251.428C741.915 265.192 763.02 325.294 763.02 325.294C763.02 325.294 763.02 340.893 762.102 344.564C761.184 348.234 746.749 380.246 759.349 383.102C767.214 384.885 773.676 389.568 774.26 396.178C774.953 404.027 768.945 413.933 769.443 415.677C770.36 418.888 775.866 423.476 775.407 421.182C774.948 418.888 779.077 385.855 785.5 371.174C791.924 356.492 782.748 257.852 780.913 245.005C780.027 238.185 778.647 231.438 776.783 224.818V224.818Z" fill="#575A89"/>
<path id="Vector_93" d="M758.432 392.278L766.69 412.007L772.884 399.39L765.772 383.561L758.432 392.278Z" fill="#FFB9B9"/>
<path id="Vector_94" d="M802.284 200.143C802.284 200.143 809.816 203.255 814.404 203.255C818.992 203.255 837.803 212.89 831.379 218.854C824.956 224.818 815.322 226.195 810.734 234.912C806.146 243.629 803.852 245.005 803.852 245.005L795.684 234.033C795.684 234.033 807.063 221.148 806.604 217.019C806.146 212.89 802.284 200.143 802.284 200.143Z" fill="#FBD46D"/>
<path id="Vector_95" d="M771.874 211.174C771.874 211.174 766.231 213.349 764.855 217.019C763.479 220.689 754.762 227.571 758.432 229.406C762.102 231.242 778.16 238.582 781.372 239.959C784.583 241.335 790.568 236.054 790.568 236.054C790.568 236.054 782.519 231.471 782.519 228.259C782.519 225.048 771.874 211.174 771.874 211.174Z" fill="#FBD46D"/>
<path id="Vector_96" d="M752.926 245.006L741.915 247.759C741.915 247.759 726.775 315.66 731.363 332.635C735.951 349.611 757.514 400.537 757.514 400.537L771.278 384.479C771.278 384.479 765.274 347.964 761.853 345.576C758.432 343.188 760.726 338.141 760.726 336.765C760.726 335.388 762.102 336.306 758.891 333.094C755.679 329.883 770.819 311.99 766.69 306.943C762.561 301.896 752.926 245.006 752.926 245.006Z" fill="#575A89"/>
<path id="Vector_97" opacity="0.1" d="M861.431 257.622L854.779 232.618C854.779 232.618 872.671 245.464 876.342 264.275C880.012 283.085 894.235 320.707 885.059 337.223C875.883 353.74 859.825 401.454 854.32 400.537C848.814 399.619 835.509 388.149 835.05 386.314C834.592 384.479 858.908 342.27 855.237 339.058C851.567 335.847 852.484 327.589 855.237 325.753C857.99 323.918 861.202 315.201 858.908 315.66C856.614 316.119 849.732 311.531 851.108 306.484C852.484 301.437 844.226 267.487 844.226 267.487L861.431 257.622Z" fill="black"/>
<path id="Vector_98" d="M852.484 229.406L858.907 231.241C858.907 231.241 876.8 244.088 880.471 262.898C884.141 281.709 898.364 319.33 889.188 335.846C880.012 352.363 863.954 400.078 858.449 399.16C852.943 398.242 839.638 386.773 839.179 384.937C838.72 383.102 863.037 340.893 859.366 337.682C855.696 334.47 856.613 326.212 859.366 324.377C862.119 322.541 865.33 313.824 863.037 314.283C860.743 314.742 853.861 310.154 855.237 305.107C856.613 300.061 848.355 266.11 848.355 266.11L852.484 229.406Z" fill="#575A89"/>
<path id="Vector_99" d="M793.921 163.828L798.395 162.201C798.395 162.201 789.039 152.845 776.022 153.658L779.684 149.997C779.684 149.997 770.734 146.743 762.599 155.285C758.322 159.776 753.374 165.054 750.289 171H745.497L747.497 175L740.497 179L747.682 178.282C747.001 181.735 747.236 185.307 748.361 188.641L749.989 193.116C749.989 193.116 756.497 180.099 756.497 178.472V182.54C756.497 182.54 760.972 178.879 760.972 176.438L763.412 179.285L764.633 174.811L779.684 179.285L777.243 175.624L786.599 176.845L782.938 172.37C782.938 172.37 793.514 177.658 793.921 182.133C794.328 186.608 799.616 192.302 799.616 192.302L802.056 188.235C802.056 188.235 805.718 169.929 793.921 163.828Z" fill="#2F2E41"/>
<path id="Vector_100" d="M792.997 188C794.93 188 796.497 185.538 796.497 182.5C796.497 179.462 794.93 177 792.997 177C791.064 177 789.497 179.462 789.497 182.5C789.497 185.538 791.064 188 792.997 188Z" fill="#FFB9B9"/>
</g>
</g>
<defs>
<clipPath id="clip0">
<rect width="925.497" height="645.184" fill="white"/>
</clipPath>
</defs>
</svg>
