<svg width="1496" height="1059" viewBox="0 0 1496 1059" fill="none" xmlns="http://www.w3.org/2000/svg">
<g id="skills" clip-path="url(#clip0)" filter="url(#filter0_d)">
<path id="circle" d="M378.756 565.042C395.102 565.042 408.353 551.616 408.353 535.054C408.353 518.492 395.102 505.066 378.756 505.066C362.409 505.066 349.158 518.492 349.158 535.054C349.158 551.616 362.409 565.042 378.756 565.042Z" fill="#F2F2F2"/>
<g id="line">
<path id="Vector" d="M1203.4 823.455H978.313V826.713H1203.4V823.455Z" fill="#F2F2F2"/>
<path id="Vector_2" d="M1042.62 794.133H1039.41V824.27H1042.62V794.133Z" fill="#F2F2F2"/>
<path id="Vector_3" d="M1140.7 794.133H1137.48V824.27H1140.7V794.133Z" fill="#F2F2F2"/>
</g>
<g id="line_2">
<path id="Vector_4" d="M1214.66 326.613H989.567V329.871H1214.66V326.613Z" fill="#F2F2F2"/>
<path id="Vector_5" d="M1053.88 297.291H1050.66V327.427H1053.88V297.291Z" fill="#F2F2F2"/>
<path id="Vector_6" d="M1151.95 297.291H1148.74V327.427H1151.95V297.291Z" fill="#F2F2F2"/>
</g>
<g id="line_3">
<path id="Vector_7" d="M1214.66 209.325H989.567V212.583H1214.66V209.325Z" fill="#F2F2F2"/>
<path id="Vector_8" d="M1053.88 180.004H1050.66V210.14H1053.88V180.004Z" fill="#F2F2F2"/>
<path id="Vector_9" d="M1151.95 180.004H1148.74V210.14H1151.95V180.004Z" fill="#F2F2F2"/>
</g>
<g id="line_4">
<path id="Vector_10" d="M721.067 225.615H495.977V228.873H721.067V225.615Z" fill="#F2F2F2"/>
<path id="Vector_11" d="M560.289 196.293H557.073V226.43H560.289V196.293Z" fill="#F2F2F2"/>
<path id="Vector_12" d="M658.364 196.293H655.148V226.43H658.364V196.293Z" fill="#F2F2F2"/>
</g>
<g id="line_5">
<path id="Vector_13" d="M557.073 149.053H331.983V152.311H557.073V149.053Z" fill="#F2F2F2"/>
<path id="Vector_14" d="M396.295 119.731H393.079V149.867H396.295V119.731Z" fill="#F2F2F2"/>
<path id="Vector_15" d="M494.37 119.731H491.154V149.867H494.37V119.731Z" fill="#F2F2F2"/>
</g>
<g id="line_6">
<path id="Vector_16" d="M455.783 450.416H230.693V453.674H455.783V450.416Z" fill="#F2F2F2"/>
<path id="Vector_17" d="M295.004 421.094H291.789V451.231H295.004V421.094Z" fill="#F2F2F2"/>
<path id="Vector_18" d="M393.079 421.094H389.864V451.231H393.079V421.094Z" fill="#F2F2F2"/>
</g>
<g id="line_7">
<path id="Vector_19" d="M343.238 782.73H118.148V785.988H343.238V782.73Z" fill="#F2F2F2"/>
<path id="Vector_20" d="M182.459 753.409H179.244V783.545H182.459V753.409Z" fill="#F2F2F2"/>
<path id="Vector_21" d="M280.534 753.409H277.319V783.545H280.534V753.409Z" fill="#F2F2F2"/>
</g>
<g id="line_8">
<path id="Vector_22" d="M1407.59 645.895H1182.5V649.153H1407.59V645.895Z" fill="#F2F2F2"/>
<path id="Vector_23" d="M1246.81 616.573H1243.6V646.71H1246.81V616.573Z" fill="#F2F2F2"/>
<path id="Vector_24" d="M1344.89 616.573H1341.67V646.71H1344.89V616.573Z" fill="#F2F2F2"/>
</g>
<g id="line_9">
<path id="Vector_25" d="M1341.67 437.384H1116.58V440.642H1341.67V437.384Z" fill="#F2F2F2"/>
<path id="Vector_26" d="M1280.58 439.828H1277.36V469.964H1280.58V439.828Z" fill="#F2F2F2"/>
<path id="Vector_27" d="M1182.5 439.828H1179.29V469.964H1182.5V439.828Z" fill="#F2F2F2"/>
</g>
<g id="line_10">
<path id="Vector_28" d="M251.594 193.036H26.5042V196.293H251.594V193.036Z" fill="#F2F2F2"/>
<path id="Vector_29" d="M190.498 195.479H187.283V225.615H190.498V195.479Z" fill="#F2F2F2"/>
<path id="Vector_30" d="M92.4234 195.479H89.2078V225.615H92.4234V195.479Z" fill="#F2F2F2"/>
</g>
<g id="line_11">
<path id="Vector_31" d="M266.064 619.831H40.9742V623.089H266.064V619.831Z" fill="#F2F2F2"/>
<path id="Vector_32" d="M204.968 622.275H201.753V652.411H204.968V622.275Z" fill="#F2F2F2"/>
<path id="Vector_33" d="M106.893 622.275H103.678V652.411H106.893V622.275Z" fill="#F2F2F2"/>
</g>
<g id="line_12">
<path id="Vector_34" d="M975.097 87.151H750.007V90.409H975.097V87.151Z" fill="#F2F2F2"/>
<path id="Vector_35" d="M914.001 89.5945H910.786V119.731H914.001V89.5945Z" fill="#F2F2F2"/>
<path id="Vector_36" d="M815.927 89.5945H812.711V119.731H815.927V89.5945Z" fill="#F2F2F2"/>
</g>
<g id="line_13">
<path id="Vector_37" d="M343.238 313.581H118.148V316.839H343.238V313.581Z" fill="#F2F2F2"/>
<path id="Vector_38" d="M182.459 284.259H179.244V314.395H182.459V284.259Z" fill="#F2F2F2"/>
<path id="Vector_39" d="M280.534 284.259H277.319V314.395H280.534V284.259Z" fill="#F2F2F2"/>
</g>
<g id="leaf">
<path id="Vector_40" d="M63.898 983.581C75.0142 1025.21 113.09 1051 113.09 1051C113.09 1051 133.142 1009.28 122.026 967.649C110.91 926.014 72.8344 900.229 72.8344 900.229C72.8344 900.229 52.7818 941.947 63.898 983.581Z" fill="#3F3D56"/>
<path id="Vector_41" d="M80.2324 974.633C110.735 1004.72 114.461 1050.97 114.461 1050.97C114.461 1050.97 68.7317 1048.44 38.2287 1018.35C7.72571 988.266 4 942.018 4 942.018C4 942.018 49.7294 944.548 80.2324 974.633Z" fill="#FBD46D"/>
</g>
<g id="board">
<path id="Vector_42" d="M379.413 281.815V1049.07H1080.41V281.815H379.413ZM729.91 337.201C725.14 337.201 720.477 335.768 716.512 333.083C712.546 330.398 709.454 326.582 707.629 322.117C705.804 317.652 705.326 312.739 706.257 307.999C707.187 303.259 709.484 298.906 712.857 295.488C716.23 292.071 720.527 289.744 725.205 288.801C729.883 287.858 734.732 288.342 739.139 290.191C743.546 292.041 747.312 295.173 749.962 299.191C752.612 303.209 754.027 307.934 754.027 312.766C754.027 319.247 751.486 325.462 746.963 330.044C742.44 334.627 736.306 337.201 729.91 337.201Z" fill="#3F3D56"/>
<path id="Vector_43" d="M1492 1047.44H30.5236V1050.7H1492V1047.44Z" fill="#3F3D56"/>
<path id="Vector_44" d="M312.69 946.995C312.681 939.775 310.523 932.727 306.499 926.769C302.474 920.811 296.77 916.222 290.131 913.601C297.821 910.573 304.224 904.917 308.233 897.611C312.242 890.305 313.604 881.809 312.084 873.593C310.564 865.377 306.257 857.958 299.908 852.619C293.56 847.281 285.569 844.359 277.319 844.359C269.068 844.359 261.078 847.281 254.729 852.619C248.38 857.958 244.073 865.377 242.553 873.593C241.033 881.809 242.395 890.305 246.404 897.611C250.413 904.917 256.816 910.573 264.506 913.601C257.862 916.215 252.153 920.802 248.127 926.761C244.101 932.721 241.947 939.773 241.947 946.995C241.947 954.216 244.101 961.269 248.127 967.229C252.153 973.188 257.862 977.775 264.506 980.389C256.816 983.417 250.413 989.073 246.404 996.379C242.395 1003.69 241.033 1012.18 242.553 1020.4C244.073 1028.61 248.38 1036.03 254.729 1041.37C261.078 1046.71 269.068 1049.63 277.319 1049.63C285.569 1049.63 293.56 1046.71 299.908 1041.37C306.257 1036.03 310.564 1028.61 312.084 1020.4C313.604 1012.18 312.242 1003.69 308.233 996.379C304.224 989.073 297.821 983.417 290.131 980.389C296.77 977.768 302.474 973.178 306.499 967.221C310.523 961.263 312.681 954.214 312.69 946.995ZM245.163 880.206C245.158 874.077 246.859 868.07 250.072 862.877C253.285 857.683 257.879 853.513 263.325 850.846C268.772 848.178 274.851 847.122 280.864 847.798C286.876 848.473 292.579 850.854 297.316 854.666C302.054 858.478 305.634 863.566 307.645 869.347C309.656 875.128 310.017 881.366 308.687 887.345C307.356 893.325 304.388 898.802 300.122 903.149C295.857 907.496 290.468 910.535 284.574 911.918C279.789 910.903 274.848 910.903 270.063 911.918C262.991 910.252 256.682 906.213 252.162 900.456C247.642 894.699 245.175 887.563 245.163 880.206ZM309.474 1013.78C309.479 1019.91 307.778 1025.92 304.565 1031.11C301.352 1036.31 296.759 1040.48 291.312 1043.14C285.865 1045.81 279.786 1046.87 273.774 1046.19C267.761 1045.52 262.058 1043.14 257.321 1039.32C252.583 1035.51 249.003 1030.42 246.992 1024.64C244.981 1018.86 244.62 1012.62 245.951 1006.64C247.281 1000.67 250.25 995.188 254.515 990.841C258.78 986.494 264.169 983.454 270.063 982.071C274.848 983.086 279.789 983.086 284.574 982.071C291.647 983.737 297.955 987.777 302.475 993.534C306.996 999.291 309.462 1006.43 309.474 1013.78ZM284.574 978.707C279.789 977.692 274.848 977.692 270.063 978.707C262.985 977.052 256.669 973.016 252.147 967.256C247.625 961.497 245.163 954.355 245.163 946.995C245.163 939.635 247.625 932.493 252.147 926.733C256.669 920.974 262.985 916.937 270.063 915.283C274.848 916.298 279.789 916.298 284.574 915.283C291.652 916.937 297.968 920.974 302.49 926.733C307.012 932.493 309.474 939.635 309.474 946.995C309.474 954.355 307.012 961.497 302.49 967.256C297.968 973.016 291.652 977.052 284.574 978.707Z" fill="#3F3D56"/>
<path id="Vector_45" d="M825.573 442.271H457.39C454.406 442.271 451.543 441.07 449.432 438.931C447.322 436.793 446.136 433.893 446.136 430.868C446.136 427.844 447.322 424.944 449.432 422.805C451.543 420.667 454.406 419.465 457.39 419.465H825.573C828.558 419.465 831.421 420.667 833.531 422.805C835.642 424.944 836.828 427.844 836.828 430.868C836.828 433.893 835.642 436.793 833.531 438.931C831.421 441.07 828.558 442.271 825.573 442.271Z" fill="#F2F2F2"/>
<path id="Vector_46" d="M825.573 559.559H457.39C454.406 559.559 451.543 558.357 449.432 556.219C447.322 554.08 446.136 551.18 446.136 548.156C446.136 545.131 447.322 542.231 449.432 540.093C451.543 537.954 454.406 536.753 457.39 536.753H825.573C828.558 536.753 831.421 537.954 833.531 540.093C835.642 542.231 836.828 545.131 836.828 548.156C836.828 551.18 835.642 554.08 833.531 556.219C831.421 558.357 828.558 559.559 825.573 559.559Z" fill="#F2F2F2"/>
<path id="Vector_47" d="M825.573 676.846H457.39C454.406 676.846 451.543 675.645 449.432 673.506C447.322 671.368 446.136 668.467 446.136 665.443C446.136 662.419 447.322 659.518 449.432 657.38C451.543 655.242 454.406 654.04 457.39 654.04H825.573C828.558 654.04 831.421 655.242 833.531 657.38C835.642 659.518 836.828 662.419 836.828 665.443C836.828 668.467 835.642 671.368 833.531 673.506C831.421 675.645 828.558 676.846 825.573 676.846Z" fill="#F2F2F2"/>
<path id="Vector_48" d="M825.573 794.133H457.39C454.406 794.133 451.543 792.932 449.432 790.794C447.322 788.655 446.136 785.755 446.136 782.73C446.136 779.706 447.322 776.806 449.432 774.667C451.543 772.529 454.406 771.327 457.39 771.327H825.573C828.558 771.327 831.421 772.529 833.531 774.667C835.642 776.806 836.828 779.706 836.828 782.73C836.828 785.755 835.642 788.655 833.531 790.794C831.421 792.932 828.558 794.133 825.573 794.133Z" fill="#F2F2F2"/>
<path id="Vector_49" d="M825.573 911.421H457.39C454.406 911.421 451.543 910.219 449.432 908.081C447.322 905.942 446.136 903.042 446.136 900.018C446.136 896.994 447.322 894.093 449.432 891.955C451.543 889.816 454.406 888.615 457.39 888.615H825.573C828.558 888.615 831.421 889.816 833.531 891.955C835.642 894.093 836.828 896.994 836.828 900.018C836.828 903.042 835.642 905.942 833.531 908.081C831.421 910.219 828.558 911.421 825.573 911.421Z" fill="#F2F2F2"/>
<path id="Vector_50" d="M978.313 419.465H975.097V442.271H978.313V419.465Z" fill="#FBD46D"/>
<path id="Vector_51" d="M1002.43 443.9C999.885 443.9 997.399 443.136 995.284 441.704C993.168 440.272 991.52 438.237 990.546 435.855C989.573 433.474 989.318 430.854 989.814 428.326C990.311 425.798 991.536 423.476 993.334 421.653C995.133 419.831 997.425 418.59 999.92 418.087C1002.42 417.584 1005 417.842 1007.35 418.828C1009.7 419.815 1011.71 421.485 1013.12 423.628C1014.54 425.771 1015.29 428.291 1015.29 430.868C1015.29 434.323 1013.93 437.636 1011.52 440.079C1009.11 442.522 1005.84 443.896 1002.43 443.9ZM1002.43 421.094C1000.52 421.094 998.656 421.668 997.07 422.742C995.484 423.816 994.247 425.342 993.517 427.128C992.787 428.914 992.596 430.879 992.968 432.775C993.34 434.671 994.259 436.413 995.608 437.78C996.957 439.146 998.676 440.077 1000.55 440.454C1002.42 440.832 1004.36 440.638 1006.12 439.898C1007.88 439.159 1009.39 437.906 1010.45 436.298C1011.51 434.691 1012.08 432.801 1012.08 430.868C1012.07 428.277 1011.06 425.793 1009.25 423.96C1007.44 422.128 1004.99 421.097 1002.43 421.094Z" fill="#FBD46D"/>
<path id="Vector_52" d="M978.313 536.753H975.097V559.559H978.313V536.753Z" fill="#FBD46D"/>
<path id="Vector_53" d="M1002.43 561.188C999.885 561.188 997.399 560.423 995.284 558.991C993.168 557.559 991.52 555.524 990.546 553.143C989.573 550.762 989.318 548.141 989.814 545.613C990.311 543.085 991.536 540.763 993.334 538.941C995.133 537.118 997.425 535.877 999.92 535.374C1002.42 534.871 1005 535.129 1007.35 536.116C1009.7 537.102 1011.71 538.772 1013.12 540.916C1014.54 543.059 1015.29 545.578 1015.29 548.156C1015.29 551.611 1013.93 554.923 1011.52 557.366C1009.11 559.809 1005.84 561.184 1002.43 561.188ZM1002.43 538.382C1000.52 538.382 998.656 538.955 997.07 540.029C995.484 541.103 994.247 542.629 993.517 544.415C992.787 546.201 992.596 548.167 992.968 550.062C993.34 551.958 994.259 553.7 995.608 555.067C996.957 556.434 998.676 557.365 1000.55 557.742C1002.42 558.119 1004.36 557.925 1006.12 557.186C1007.88 556.446 1009.39 555.193 1010.45 553.586C1011.51 551.978 1012.08 550.089 1012.08 548.156C1012.07 545.564 1011.06 543.08 1009.25 541.248C1007.44 539.415 1004.99 538.385 1002.43 538.382Z" fill="#FBD46D"/>
<path id="Vector_54" d="M978.313 654.04H975.097V676.846H978.313V654.04Z" fill="#FBD46D"/>
<path id="Vector_55" d="M1002.43 678.475C999.885 678.475 997.399 677.711 995.284 676.279C993.168 674.847 991.52 672.811 990.546 670.43C989.573 668.049 989.318 665.429 989.814 662.901C990.311 660.373 991.536 658.051 993.334 656.228C995.133 654.406 997.425 653.164 999.92 652.662C1002.42 652.159 1005 652.417 1007.35 653.403C1009.7 654.389 1011.71 656.06 1013.12 658.203C1014.54 660.346 1015.29 662.866 1015.29 665.443C1015.29 668.898 1013.93 672.211 1011.52 674.654C1009.11 677.097 1005.84 678.471 1002.43 678.475ZM1002.43 655.669C1000.52 655.669 998.656 656.242 997.07 657.316C995.484 658.39 994.247 659.917 993.517 661.703C992.787 663.489 992.596 665.454 992.968 667.35C993.34 669.246 994.259 670.987 995.608 672.354C996.957 673.721 998.676 674.652 1000.55 675.029C1002.42 675.406 1004.36 675.213 1006.12 674.473C1007.88 673.733 1009.39 672.48 1010.45 670.873C1011.51 669.266 1012.08 667.376 1012.08 665.443C1012.07 662.852 1011.06 660.367 1009.25 658.535C1007.44 656.703 1004.99 655.672 1002.43 655.669Z" fill="#FBD46D"/>
<path id="Vector_56" d="M978.313 771.327H975.097V794.133H978.313V771.327Z" fill="#FBD46D"/>
<path id="Vector_57" d="M1002.43 795.762C999.885 795.762 997.399 794.998 995.284 793.566C993.168 792.134 991.52 790.099 990.546 787.718C989.573 785.336 989.318 782.716 989.814 780.188C990.311 777.66 991.536 775.338 993.334 773.515C995.133 771.693 997.425 770.452 999.92 769.949C1002.42 769.446 1005 769.704 1007.35 770.69C1009.7 771.677 1011.71 773.347 1013.12 775.49C1014.54 777.633 1015.29 780.153 1015.29 782.73C1015.29 786.185 1013.93 789.498 1011.52 791.941C1009.11 794.384 1005.84 795.758 1002.43 795.762ZM1002.43 772.956C1000.52 772.956 998.656 773.53 997.07 774.604C995.484 775.678 994.247 777.204 993.517 778.99C992.787 780.776 992.596 782.741 992.968 784.637C993.34 786.533 994.259 788.275 995.608 789.642C996.957 791.009 998.676 791.939 1000.55 792.317C1002.42 792.694 1004.36 792.5 1006.12 791.76C1007.88 791.021 1009.39 789.768 1010.45 788.161C1011.51 786.553 1012.08 784.664 1012.08 782.73C1012.07 780.139 1011.06 777.655 1009.25 775.822C1007.44 773.99 1004.99 772.959 1002.43 772.956Z" fill="#FBD46D"/>
<path id="Vector_58" d="M978.313 888.615H975.097V911.421H978.313V888.615Z" fill="#FBD46D"/>
<path id="Vector_59" d="M1002.43 913.05C999.885 913.05 997.399 912.285 995.284 910.853C993.168 909.421 991.52 907.386 990.546 905.005C989.573 902.624 989.318 900.003 989.814 897.475C990.311 894.947 991.536 892.625 993.334 890.803C995.133 888.98 997.425 887.739 999.92 887.236C1002.42 886.733 1005 886.991 1007.35 887.978C1009.7 888.964 1011.71 890.635 1013.12 892.778C1014.54 894.921 1015.29 897.44 1015.29 900.018C1015.29 903.473 1013.93 906.785 1011.52 909.228C1009.11 911.671 1005.84 913.046 1002.43 913.05ZM1002.43 890.244C1000.52 890.244 998.656 890.817 997.07 891.891C995.484 892.965 994.247 894.491 993.517 896.277C992.787 898.063 992.596 900.029 992.968 901.925C993.34 903.82 994.259 905.562 995.608 906.929C996.957 908.296 998.676 909.227 1000.55 909.604C1002.42 909.981 1004.36 909.787 1006.12 909.048C1007.88 908.308 1009.39 907.055 1010.45 905.448C1011.51 903.841 1012.08 901.951 1012.08 900.018C1012.07 897.426 1011.06 894.942 1009.25 893.11C1007.44 891.277 1004.99 890.247 1002.43 890.244Z" fill="#FBD46D"/>
<path id="Vector_60" d="M729.91 324.169C736.126 324.169 741.165 319.064 741.165 312.766C741.165 306.469 736.126 301.363 729.91 301.363C723.694 301.363 718.656 306.469 718.656 312.766C718.656 319.064 723.694 324.169 729.91 324.169Z" fill="#3F3D56"/>
<path id="Vector_61" d="M729.91 22.8059C736.126 22.8059 741.165 17.7006 741.165 11.4029C741.165 5.10527 736.126 0 729.91 0C723.694 0 718.656 5.10527 718.656 11.4029C718.656 17.7006 723.694 22.8059 729.91 22.8059Z" fill="#3F3D56"/>
<path id="Vector_62" d="M731.518 11.4028H728.302V312.766H731.518V11.4028Z" fill="#3F3D56"/>
</g>
<g id="back-end">
<g id="progress">
<path id="Vector_63" d="M685.95 442.271H453.107C450.832 442.271 448.65 441.07 447.041 438.931C445.432 436.793 444.528 433.893 444.528 430.868C444.528 427.844 445.432 424.944 447.041 422.805C448.65 420.667 450.832 419.465 453.107 419.465H685.95C688.225 419.465 690.407 420.667 692.016 422.805C693.625 424.944 694.528 427.844 694.528 430.868C694.528 433.893 693.625 436.793 692.016 438.931C690.407 441.07 688.225 442.271 685.95 442.271Z" fill="#FBD46D"/>
<path id="Vector_64" d="M519.506 559.559H448.332C447.323 559.559 446.355 558.357 445.642 556.219C444.929 554.08 444.528 551.18 444.528 548.156C444.528 545.131 444.929 542.231 445.642 540.093C446.355 537.954 447.323 536.753 448.332 536.753H519.506C520.515 536.753 521.482 537.954 522.196 540.093C522.909 542.231 523.31 545.131 523.31 548.156C523.31 551.18 522.909 554.08 522.196 556.219C521.482 558.357 520.515 559.559 519.506 559.559Z" fill="#FBD46D"/>
<path id="Vector_65" d="M560.817 676.846H456.862C453.591 676.846 450.454 675.645 448.141 673.506C445.828 671.368 444.528 668.467 444.528 665.443C444.528 662.419 445.828 659.518 448.141 657.38C450.454 655.242 453.591 654.04 456.862 654.04H560.817C564.088 654.04 567.226 655.242 569.539 657.38C571.852 659.518 573.151 662.419 573.151 665.443C573.151 668.467 571.852 671.368 569.539 673.506C567.226 675.645 564.088 676.846 560.817 676.846Z" fill="#FBD46D"/>
<path id="Vector_66" d="M802.659 794.133H456.188C453.096 794.133 450.13 792.932 447.943 790.794C445.757 788.655 444.528 785.755 444.528 782.73C444.528 779.706 445.757 776.806 447.943 774.667C450.13 772.529 453.096 771.327 456.188 771.327H802.659C805.751 771.327 808.717 772.529 810.904 774.667C813.09 776.806 814.319 779.706 814.319 782.73C814.319 785.755 813.09 788.655 810.904 790.794C808.717 792.932 805.751 794.133 802.659 794.133Z" fill="#FBD46D"/>
<path id="Vector_67" d="M742.199 911.421H456.858C453.588 911.421 450.452 910.219 448.14 908.081C445.827 905.942 444.528 903.042 444.528 900.018C444.528 896.994 445.827 894.093 448.14 891.955C450.452 889.816 453.588 888.615 456.858 888.615H742.199C745.469 888.615 748.605 889.816 750.917 891.955C753.229 894.093 754.528 896.994 754.528 900.018C754.528 903.042 753.229 905.942 750.917 908.081C748.605 910.219 745.469 911.421 742.199 911.421V911.421Z" fill="#FBD46D"/>
</g>
<g id="dots">
<path id="Vector_68" d="M276.373 965.695C286.503 965.695 294.716 957.374 294.716 947.11C294.716 936.846 286.503 928.525 276.373 928.525C266.242 928.525 258.03 936.846 258.03 947.11C258.03 957.374 266.242 965.695 276.373 965.695Z" fill="#FBD46D"/>
<path id="Vector_69" d="M1002.43 554.672C1005.99 554.672 1008.87 551.754 1008.87 548.156C1008.87 544.557 1005.99 541.64 1002.43 541.64C998.883 541.64 996.003 544.557 996.003 548.156C996.003 551.754 998.883 554.672 1002.43 554.672Z" fill="#FBD46D"/>
<path id="Vector_70" d="M1002.5 672.5C1006.09 672.5 1009 669.59 1009 666C1009 662.41 1006.09 659.5 1002.5 659.5C998.91 659.5 996 662.41 996 666C996 669.59 998.91 672.5 1002.5 672.5Z" fill="#FBD46D"/>
<path id="Vector_71" d="M1002.43 906.534C1005.98 906.534 1008.86 903.616 1008.86 900.018C1008.86 896.419 1005.98 893.502 1002.43 893.502C998.878 893.502 995.998 896.419 995.998 900.018C995.998 903.616 998.878 906.534 1002.43 906.534Z" fill="#FBD46D"/>
</g>
</g>
<g id="front-end">
<g id="progress">
<path id="Vector_72" d="M761.262 442.271H455.783C452.798 442.271 449.935 441.07 447.825 438.931C445.714 436.793 444.528 433.893 444.528 430.868C444.528 427.844 445.714 424.944 447.825 422.805C449.935 420.667 452.798 419.465 455.783 419.465H761.262C764.247 419.465 767.109 420.667 769.22 422.805C771.331 424.944 772.516 427.844 772.516 430.868C772.516 433.893 771.331 436.793 769.22 438.931C767.109 441.07 764.247 442.271 761.262 442.271Z" fill="#FBD46D"/>
<path id="Vector_73" d="M666.402 559.559H455.783C452.798 559.559 449.935 558.357 447.825 556.219C445.714 554.08 444.528 551.18 444.528 548.156C444.528 545.131 445.714 542.231 447.825 540.093C449.935 537.954 452.798 536.753 455.783 536.753H666.402C669.387 536.753 672.25 537.954 674.361 540.093C676.471 542.231 677.657 545.131 677.657 548.156C677.657 551.18 676.471 554.08 674.361 556.219C672.25 558.357 669.387 559.559 666.402 559.559Z" fill="#FBD46D"/>
<path id="Vector_74" d="M550.642 676.846H455.783C452.798 676.846 449.935 675.645 447.825 673.506C445.714 671.368 444.528 668.467 444.528 665.443C444.528 662.419 445.714 659.518 447.825 657.38C449.935 655.242 452.798 654.04 455.783 654.04H550.642C553.627 654.04 556.489 655.242 558.6 657.38C560.711 659.518 561.896 662.419 561.896 665.443C561.896 668.467 560.711 671.368 558.6 673.506C556.489 675.645 553.627 676.846 550.642 676.846Z" fill="#FBD46D"/>
<path id="Vector_75" d="M790.202 794.133H455.783C452.798 794.133 449.935 792.932 447.825 790.794C445.714 788.655 444.528 785.755 444.528 782.73C444.528 779.706 445.714 776.806 447.825 774.667C449.935 772.529 452.798 771.327 455.783 771.327H790.202C793.187 771.327 796.049 772.529 798.16 774.667C800.271 776.806 801.456 779.706 801.456 782.73C801.456 785.755 800.271 788.655 798.16 790.794C796.049 792.932 793.187 794.133 790.202 794.133Z" fill="#FBD46D"/>
<path id="Vector_76" d="M716.244 911.421H455.783C452.798 911.421 449.935 910.219 447.825 908.081C445.714 905.942 444.528 903.042 444.528 900.018C444.528 896.994 445.714 894.093 447.825 891.955C449.935 889.816 452.798 888.615 455.783 888.615H716.244C719.229 888.615 722.091 889.816 724.202 891.955C726.313 894.093 727.498 896.994 727.498 900.018C727.498 903.042 726.313 905.942 724.202 908.081C722.091 910.219 719.229 911.421 716.244 911.421Z" fill="#FBD46D"/>
</g>
<g id="dots">
<path id="Vector_77" d="M277.465 898.985C287.596 898.985 295.808 890.664 295.808 880.4C295.808 870.136 287.596 861.815 277.465 861.815C267.335 861.815 259.122 870.136 259.122 880.4C259.122 890.664 267.335 898.985 277.465 898.985Z" fill="#FBD46D"/>
<path id="Vector_78" d="M1002.43 437.384C1005.98 437.384 1008.86 434.467 1008.86 430.868C1008.86 427.27 1005.98 424.352 1002.43 424.352C998.878 424.352 995.998 427.27 995.998 430.868C995.998 434.467 998.878 437.384 1002.43 437.384Z" fill="#FBD46D"/>
<path id="Vector_79" d="M1002.43 789.246C1005.98 789.246 1008.86 786.329 1008.86 782.73C1008.86 779.132 1005.98 776.214 1002.43 776.214C998.878 776.214 995.998 779.132 995.998 782.73C995.998 786.329 998.878 789.246 1002.43 789.246Z" fill="#FBD46D"/>
<path id="Vector_80" d="M1002.43 906.534C1005.98 906.534 1008.86 903.616 1008.86 900.018C1008.86 896.419 1005.98 893.502 1002.43 893.502C998.878 893.502 995.998 896.419 995.998 900.018C995.998 903.616 998.878 906.534 1002.43 906.534Z" fill="#FBD46D"/>
</g>
</g>
<g id="man">
<path id="Vector_81" d="M1381.25 626.313V666.671C1381.25 666.671 1390.84 731.692 1390.84 788.493C1390.84 845.293 1375.35 977.578 1375.35 977.578C1375.35 977.578 1344.37 988.788 1342.16 971.599C1339.94 954.409 1334.04 863.23 1334.04 849.777C1334.04 836.324 1308.22 733.935 1308.22 733.935L1292 847.535C1292 847.535 1297.16 982.062 1292 985.799C1286.83 989.535 1261.75 996.262 1258.8 989.536C1255.85 982.809 1240.36 838.567 1240.36 838.567C1240.36 838.567 1227.82 650.229 1235.2 639.018C1242.57 627.808 1249.21 618.839 1249.21 618.839C1249.21 618.839 1354.69 592.681 1381.25 626.313Z" fill="#2F2E41"/>
<path id="Vector_82" d="M1371.66 973.093L1373.51 985.276C1374.13 989.432 1374.53 993.619 1374.72 997.818C1375.01 1003.94 1376.01 1013.37 1379.46 1014.86C1384.62 1017.1 1418.13 1045.74 1394.53 1047.24C1370.92 1048.73 1359.11 1051.31 1352.12 1045.81C1343.86 1039.31 1353.22 1042.25 1349.53 1042.25C1345.84 1042.25 1341.42 1042.25 1339.94 1036.28C1338.47 1030.3 1342.16 1019.83 1342.16 1019.83V973.093H1371.66Z" fill="#2F2E41"/>
<path id="Vector_83" d="M1261.52 972.508L1259.67 984.691C1259.05 988.847 1258.65 993.033 1258.46 997.232C1258.17 1003.35 1257.17 1012.78 1253.73 1014.28C1248.56 1016.52 1215.05 1045.16 1238.65 1046.65C1262.26 1048.14 1274.07 1050.73 1281.06 1045.23C1289.33 1038.72 1279.96 1041.67 1283.65 1041.67C1287.34 1041.67 1291.76 1041.67 1293.24 1035.69C1294.71 1029.71 1291.03 1019.25 1291.03 1019.25V972.508H1261.52Z" fill="#2F2E41"/>
<path id="Vector_84" d="M1282.41 301.954C1282.41 301.954 1294.95 333.343 1303.8 338.575C1312.65 343.807 1308.22 367.723 1308.22 367.723L1286.09 399.112H1268.39L1247 361.744C1247 361.744 1245.52 337.08 1241.1 331.101C1236.67 325.122 1282.41 301.954 1282.41 301.954Z" fill="#FFB9B9"/>
<path id="Vector_85" opacity="0.1" d="M1282.41 301.954C1282.41 301.954 1294.95 333.343 1303.8 338.575C1312.65 343.807 1308.22 367.723 1308.22 367.723L1286.09 399.112H1268.39L1247 361.744C1247 361.744 1245.52 337.08 1241.1 331.101C1236.67 325.122 1282.41 301.954 1282.41 301.954Z" fill="black"/>
<path id="Vector_86" d="M1300.85 366.228L1334.04 373.701L1358.38 621.829C1358.38 621.829 1345.11 624.071 1331.83 642.008C1318.55 659.945 1302.32 656.955 1294.21 652.471C1286.09 647.987 1253.64 635.281 1252.9 630.05C1252.16 624.818 1254.38 532.892 1254.38 532.892L1233.72 389.396L1244.05 373.701H1262.49L1277.24 386.407L1300.85 366.228Z" fill="#FBD46D"/>
<path id="Vector_87" d="M1250.69 340.817C1271.87 340.817 1289.04 323.417 1289.04 301.954C1289.04 280.49 1271.87 263.09 1250.69 263.09C1229.5 263.09 1212.33 280.49 1212.33 301.954C1212.33 323.417 1229.5 340.817 1250.69 340.817Z" fill="#FFB9B9"/>
<path id="Vector_88" d="M1306.01 353.522C1306.01 353.522 1378.3 360.996 1384.94 376.691C1391.58 392.386 1380.51 461.891 1380.51 461.891C1380.51 461.891 1407.07 522.428 1406.33 536.628C1405.59 550.829 1431.41 647.987 1403.38 636.776C1375.35 625.566 1384.2 596.418 1370.19 617.345C1356.17 638.271 1350.27 635.281 1350.27 635.281C1350.27 635.281 1336.25 658.45 1331.83 656.208C1327.4 653.966 1324.45 636.776 1334.04 628.555C1343.63 620.334 1342.16 606.134 1323.71 579.229C1305.27 552.323 1286.09 411.07 1297.16 389.396C1308.22 367.723 1306.01 353.522 1306.01 353.522Z" fill="#575A89"/>
<path id="Vector_89" d="M1381.25 640.513L1368.71 652.471L1353.22 642.008L1359.86 626.313L1381.25 640.513Z" fill="#FFB9B9"/>
<path id="Vector_90" d="M1252.9 366.228C1252.9 366.228 1196.84 387.154 1196.84 409.575C1196.84 431.996 1230.77 529.902 1230.77 529.902C1230.77 529.902 1230.77 555.313 1229.3 561.292C1227.82 567.271 1204.61 619.418 1224.87 624.071C1237.52 626.975 1247.9 634.604 1248.84 645.371C1249.96 658.156 1240.3 674.294 1241.1 677.134C1242.57 682.366 1251.43 689.84 1250.69 686.103C1249.95 682.366 1256.59 628.555 1266.92 604.639C1277.24 580.723 1262.49 420.038 1259.54 399.112C1258.12 388.002 1255.9 377.012 1252.9 366.228Z" fill="#575A89"/>
<path id="Vector_91" d="M1223.4 639.018L1236.67 671.156L1246.63 650.603L1235.2 624.818L1223.4 639.018Z" fill="#FFB9B9"/>
<path id="Vector_92" d="M1293.9 326.031C1293.9 326.031 1306.01 331.101 1313.39 331.101C1320.76 331.101 1351.01 346.796 1340.68 356.512C1330.35 366.228 1314.86 368.47 1307.49 382.67C1300.11 396.87 1296.42 399.112 1296.42 399.112L1283.29 381.238C1283.29 381.238 1301.58 360.249 1300.85 353.522C1300.11 346.796 1293.9 326.031 1293.9 326.031Z" fill="#FBD46D"/>
<path id="Vector_93" d="M1245.01 344.001C1245.01 344.001 1235.93 347.543 1233.72 353.522C1231.51 359.501 1217.49 370.712 1223.39 373.701C1229.3 376.691 1255.11 388.649 1260.28 390.891C1265.44 393.133 1275.06 384.53 1275.06 384.53C1275.06 384.53 1262.12 377.065 1262.12 371.833C1262.12 366.601 1245.01 344.001 1245.01 344.001Z" fill="#FBD46D"/>
<path id="Vector_94" d="M1214.54 399.112L1196.84 403.596C1196.84 403.596 1172.5 514.207 1179.87 541.86C1187.25 569.513 1221.92 652.471 1221.92 652.471L1244.05 626.313C1244.05 626.313 1234.4 566.83 1228.9 562.94C1223.39 559.05 1227.08 550.829 1227.08 548.586C1227.08 546.344 1229.3 547.839 1224.13 542.607C1218.97 537.376 1243.31 508.228 1236.67 500.007C1230.03 491.786 1214.54 399.112 1214.54 399.112Z" fill="#575A89"/>
<path id="Vector_95" opacity="0.1" d="M1389 419.665L1378.3 378.933C1378.3 378.933 1407.07 399.859 1412.97 430.502C1418.87 461.144 1441.74 522.428 1426.98 549.334C1412.23 576.239 1386.41 653.966 1377.56 652.471C1368.71 650.976 1347.32 632.292 1346.58 629.303C1345.84 626.313 1384.94 557.555 1379.04 552.323C1373.14 547.092 1374.61 533.639 1379.04 530.65C1383.46 527.66 1388.63 513.46 1384.94 514.207C1381.25 514.955 1370.19 507.481 1372.4 499.26C1374.61 491.039 1361.33 435.733 1361.33 435.733L1389 419.665Z" fill="black"/>
<path id="Vector_96" d="M1374.61 373.701L1384.94 376.691C1384.94 376.691 1413.71 397.617 1419.61 428.26C1425.51 458.902 1448.38 520.186 1433.62 547.092C1418.87 573.997 1393.05 651.724 1384.2 650.229C1375.35 648.734 1353.96 630.05 1353.22 627.06C1352.48 624.071 1391.58 555.313 1385.68 550.081C1379.77 544.85 1381.25 531.397 1385.68 528.407C1390.1 525.418 1395.27 511.218 1391.58 511.965C1387.89 512.713 1376.82 505.239 1379.04 497.018C1381.25 488.797 1367.97 433.491 1367.97 433.491L1374.61 373.701Z" fill="#575A89"/>
<path id="Vector_97" d="M1280.45 266.874L1287.65 264.223C1287.65 264.223 1272.61 248.982 1251.68 250.307L1257.56 244.344C1257.56 244.344 1243.17 239.043 1230.09 252.958C1223.22 260.273 1215.26 268.871 1210.3 278.558H1202.6L1205.81 285.074L1194.56 291.59L1206.11 290.419C1205.02 296.045 1205.39 301.862 1207.2 307.295L1209.82 314.584C1209.82 314.584 1220.28 293.379 1220.28 290.729V297.355C1220.28 297.355 1227.48 291.391 1227.48 287.415L1231.4 292.054L1233.36 284.765L1257.56 292.054L1253.64 286.09L1268.68 288.078L1262.8 280.789C1262.8 280.789 1279.8 289.403 1280.45 296.692C1281.11 303.982 1289.61 313.259 1289.61 313.259L1293.53 306.632C1293.53 306.632 1299.42 276.813 1280.45 266.874Z" fill="#2F2E41"/>
<path id="Vector_98" d="M1278.97 306.25C1282.08 306.25 1284.6 302.239 1284.6 297.291C1284.6 292.343 1282.08 288.332 1278.97 288.332C1275.86 288.332 1273.34 292.343 1273.34 297.291C1273.34 302.239 1275.86 306.25 1278.97 306.25Z" fill="#FFB9B9"/>
</g>
</g>
<defs>
<filter id="filter0_d" x="0" y="0" width="1496" height="1059" filterUnits="userSpaceOnUse" color-interpolation-filters="sRGB">
<feFlood flood-opacity="0" result="BackgroundImageFix"/>
<feColorMatrix in="SourceAlpha" type="matrix" values="0 0 0 0 0 0 0 0 0 0 0 0 0 0 0 0 0 0 127 0"/>
<feOffset dy="4"/>
<feGaussianBlur stdDeviation="2"/>
<feColorMatrix type="matrix" values="0 0 0 0 0 0 0 0 0 0 0 0 0 0 0 0 0 0 0.25 0"/>
<feBlend mode="normal" in2="BackgroundImageFix" result="effect1_dropShadow"/>
<feBlend mode="normal" in="SourceGraphic" in2="effect1_dropShadow" result="shape"/>
</filter>
<clipPath id="clip0">
<rect width="1488" height="1051" fill="white" transform="translate(4)"/>
</clipPath>
</defs>
</svg>
