<svg width="1434" height="1002" viewBox="0 0 1434 1002" fill="none" xmlns="http://www.w3.org/2000/svg">
<g id="skills" clip-path="url(#clip0)" filter="url(#filter0_d)">
<path id="background" d="M1101 915.5C1152.91 999.398 1372.68 1094.7 1445 1106.98L818.693 1106.98C531.988 1105.87 -14.6226 1102.85 92.5784 1099.69C226.58 1095.74 30.9372 1099.07 -182.346 1096.93C-251.858 1096.23 -232.567 749.63 24.9996 884.5C289.5 1023 292.5 811 249.5 738.655C206.5 666.311 92.5784 599 92.5784 599C-1.04573 528 -15.1923 454.5 24.9995 372.305C61.578 297.5 93.6356 250.027 182 227C335.5 187 371.319 353.279 400 372.305C465.551 415.79 768.407 312.805 842.5 372.305C916.593 431.805 811.504 638.257 885.5 639C959.496 639.743 1027 242.5 1303.5 372.305C1434.3 433.712 1534 832.5 1162.5 657.5C1113.53 634.431 1051.5 835.5 1101 915.5Z" fill="url(#paint0_linear)"/>
<path id="circle" d="M363.141 534.397C378.806 534.397 391.505 521.699 391.505 506.036C391.505 490.372 378.806 477.674 363.141 477.674C347.476 477.674 334.777 490.372 334.777 506.036C334.777 521.699 347.476 534.397 363.141 534.397Z" fill="#F2F2F2"/>
<g id="line">
<path id="Vector" d="M805.208 33.1239H589.497V36.2052H805.208V33.1239Z" fill="#F2F2F2"/>
<path id="Vector_2" d="M651.129 5.39226H648.047V33.8942H651.129V5.39226Z" fill="#F2F2F2"/>
<path id="Vector_3" d="M745.117 5.39226H742.036V33.8942H745.117V5.39226Z" fill="#F2F2F2"/>
</g>
<g id="line_2">
<path id="Vector_4" d="M1153.43 778.796H937.716V781.877H1153.43V778.796Z" fill="#F2F2F2"/>
<path id="Vector_5" d="M999.348 751.064H996.267V779.566H999.348V751.064Z" fill="#F2F2F2"/>
<path id="Vector_6" d="M1093.34 751.064H1090.26V779.566H1093.34V751.064Z" fill="#F2F2F2"/>
</g>
<g id="line_3">
<path id="Vector_7" d="M1164.21 308.899H948.502V311.981H1164.21V308.899Z" fill="#F2F2F2"/>
<path id="Vector_8" d="M1010.13 281.168H1007.05V309.67H1010.13V281.168Z" fill="#F2F2F2"/>
<path id="Vector_9" d="M1104.12 281.168H1101.04V309.67H1104.12V281.168Z" fill="#F2F2F2"/>
</g>
<g id="line_4">
<path id="Vector_10" d="M1164.21 197.973H948.502V201.054H1164.21V197.973Z" fill="#F2F2F2"/>
<path id="Vector_11" d="M1010.13 170.241H1007.05V198.743H1010.13V170.241Z" fill="#F2F2F2"/>
<path id="Vector_12" d="M1104.12 170.241H1101.04V198.743H1104.12V170.241Z" fill="#F2F2F2"/>
</g>
<g id="line_5">
<path id="Vector_13" d="M691.189 213.379H475.478V216.461H691.189V213.379Z" fill="#F2F2F2"/>
<path id="Vector_14" d="M537.11 185.648H534.028V214.15H537.11V185.648Z" fill="#F2F2F2"/>
<path id="Vector_15" d="M631.098 185.648H628.017V214.15H631.098V185.648Z" fill="#F2F2F2"/>
</g>
<g id="line_6">
<path id="Vector_16" d="M534.028 140.969H318.317V144.05H534.028V140.969Z" fill="#F2F2F2"/>
<path id="Vector_17" d="M379.949 113.237H376.867V141.739H379.949V113.237Z" fill="#F2F2F2"/>
<path id="Vector_18" d="M473.938 113.237H470.856V141.739H473.938V113.237Z" fill="#F2F2F2"/>
</g>
<g id="line_7">
<path id="Vector_19" d="M436.958 425.988H221.247V429.07H436.958V425.988Z" fill="#F2F2F2"/>
<path id="Vector_20" d="M282.879 398.257H279.797V426.759H282.879V398.257Z" fill="#F2F2F2"/>
<path id="Vector_21" d="M376.867 398.257H373.786V426.759H376.867V398.257Z" fill="#F2F2F2"/>
</g>
<g id="line_8">
<path id="Vector_22" d="M329.103 740.28H113.392V743.361H329.103V740.28Z" fill="#F2F2F2"/>
<path id="Vector_23" d="M175.023 712.548H171.942V741.05H175.023V712.548Z" fill="#F2F2F2"/>
<path id="Vector_24" d="M269.012 712.548H265.93V741.05H269.012V712.548Z" fill="#F2F2F2"/>
</g>
<g id="line_9">
<path id="Vector_25" d="M1349.11 610.866H1133.4V613.947H1349.11V610.866Z" fill="#F2F2F2"/>
<path id="Vector_26" d="M1195.03 583.134H1191.95V611.636H1195.03V583.134Z" fill="#F2F2F2"/>
<path id="Vector_27" d="M1289.02 583.134H1285.94V611.636H1289.02V583.134Z" fill="#F2F2F2"/>
</g>
<g id="line_10">
<path id="Vector_28" d="M1285.94 413.663H1070.22V416.744H1285.94V413.663Z" fill="#F2F2F2"/>
<path id="Vector_29" d="M1227.39 415.974H1224.3V444.476H1227.39V415.974Z" fill="#F2F2F2"/>
<path id="Vector_30" d="M1133.4 415.974H1130.32V444.476H1133.4V415.974Z" fill="#F2F2F2"/>
</g>
<g id="line_11">
<path id="Vector_31" d="M241.278 182.566H25.5665V185.648H241.278V182.566Z" fill="#F2F2F2"/>
<path id="Vector_32" d="M182.727 184.877H179.646V213.379H182.727V184.877Z" fill="#F2F2F2"/>
<path id="Vector_33" d="M88.7391 184.877H85.6575V213.379H88.7391V184.877Z" fill="#F2F2F2"/>
</g>
<g id="line_12">
<path id="Vector_34" d="M255.145 586.215H39.4337V589.297H255.145V586.215Z" fill="#F2F2F2"/>
<path id="Vector_35" d="M196.595 588.526H193.513V617.028H196.595V588.526Z" fill="#F2F2F2"/>
<path id="Vector_36" d="M102.606 588.526H99.5246V617.028H102.606V588.526Z" fill="#F2F2F2"/>
</g>
<g id="line_13">
<path id="Vector_37" d="M934.635 82.4245H718.924V85.5058H934.635V82.4245Z" fill="#F2F2F2"/>
<path id="Vector_38" d="M876.085 84.7355H873.003V113.237H876.085V84.7355Z" fill="#F2F2F2"/>
<path id="Vector_39" d="M782.096 84.7355H779.015V113.237H782.096V84.7355Z" fill="#F2F2F2"/>
</g>
<g id="line_14">
<path id="Vector_40" d="M329.103 296.574H113.392V299.655H329.103V296.574Z" fill="#F2F2F2"/>
<path id="Vector_41" d="M175.023 268.842H171.942V297.344H175.023V268.842Z" fill="#F2F2F2"/>
<path id="Vector_42" d="M269.012 268.842H265.93V297.344H269.012V268.842Z" fill="#F2F2F2"/>
</g>
<g id="leaf">
<path id="Vector_43" d="M61.4022 930.237C72.0553 969.613 108.544 994 108.544 994C108.544 994 127.761 954.545 117.108 915.169C106.455 875.793 69.9663 851.406 69.9663 851.406C69.9663 851.406 50.7492 890.861 61.4022 930.237Z" fill="#3F3D56"/>
<path id="Vector_44" d="M77.0561 921.775C106.288 950.228 109.859 993.968 109.859 993.968C109.859 993.968 66.0346 991.575 36.8025 963.122C7.57048 934.668 4 890.929 4 890.929C4 890.929 47.824 893.321 77.0561 921.775Z" fill="#FBD46D"/>
</g>
<g id="board">
<path id="Vector_45" d="M363.771 266.531V992.175H1035.56V266.531H363.771ZM699.664 318.913C695.093 318.913 690.624 317.558 686.824 315.019C683.023 312.479 680.061 308.87 678.311 304.647C676.562 300.425 676.104 295.778 676.996 291.295C677.888 286.812 680.089 282.695 683.321 279.463C686.554 276.231 690.672 274.03 695.155 273.138C699.638 272.246 704.285 272.704 708.508 274.453C712.732 276.202 716.341 279.164 718.881 282.965C721.42 286.765 722.776 291.233 722.776 295.804C722.776 301.933 720.341 307.811 716.006 312.145C711.672 316.479 705.793 318.913 699.664 318.913V318.913Z" fill="#3F3D56"/>
<path id="Vector_46" d="M1430 990.635H29.4185V993.716H1430V990.635Z" fill="#3F3D56"/>
<path id="Vector_47" d="M299.828 895.636C299.819 888.808 297.752 882.141 293.895 876.507C290.038 870.872 284.571 866.532 278.209 864.052C285.578 861.189 291.715 855.839 295.557 848.93C299.399 842.02 300.704 833.985 299.247 826.214C297.79 818.444 293.663 811.427 287.579 806.378C281.495 801.329 273.837 798.566 265.93 798.566C258.024 798.566 250.366 801.329 244.282 806.378C238.198 811.427 234.07 818.444 232.613 826.214C231.156 833.985 232.462 842.02 236.304 848.93C240.146 855.839 246.282 861.189 253.652 864.052C247.285 866.524 241.813 870.863 237.955 876.499C234.097 882.135 232.033 888.806 232.033 895.636C232.033 902.465 234.097 909.136 237.955 914.772C241.813 920.408 247.285 924.747 253.652 927.219C246.282 930.082 240.146 935.432 236.304 942.342C232.462 949.251 231.156 957.286 232.613 965.057C234.07 972.827 238.198 979.844 244.282 984.893C250.366 989.942 258.024 992.705 265.93 992.705C273.837 992.705 281.495 989.942 287.579 984.893C293.663 979.844 297.79 972.827 299.247 965.057C300.704 957.286 299.399 949.251 295.557 942.342C291.715 935.432 285.578 930.082 278.209 927.219C284.571 924.739 290.038 920.399 293.895 914.764C297.752 909.13 299.819 902.463 299.828 895.636ZM235.114 832.469C235.11 826.672 236.74 820.991 239.819 816.079C242.898 811.167 247.3 807.224 252.52 804.701C257.74 802.178 263.565 801.179 269.328 801.818C275.09 802.457 280.555 804.709 285.095 808.314C289.635 811.919 293.066 816.732 294.993 822.199C296.921 827.666 297.267 833.566 295.991 839.221C294.716 844.876 291.871 850.057 287.784 854.168C283.696 858.279 278.532 861.153 272.884 862.461C268.298 861.501 263.563 861.501 258.977 862.461C252.199 860.886 246.154 857.065 241.822 851.621C237.49 846.176 235.126 839.427 235.114 832.469ZM296.746 958.802C296.751 964.599 295.12 970.28 292.042 975.192C288.963 980.104 284.56 984.047 279.341 986.57C274.121 989.093 268.295 990.092 262.533 989.453C256.771 988.814 251.306 986.562 246.766 982.957C242.226 979.352 238.795 974.539 236.867 969.072C234.94 963.605 234.594 957.705 235.869 952.05C237.145 946.395 239.989 941.214 244.077 937.103C248.164 932.992 253.329 930.118 258.977 928.81C263.563 929.77 268.298 929.77 272.884 928.81C279.661 930.385 285.707 934.206 290.039 939.65C294.371 945.095 296.735 951.844 296.746 958.802ZM272.884 925.628C268.298 924.668 263.563 924.668 258.977 925.628C252.194 924.063 246.141 920.245 241.808 914.798C237.474 909.351 235.114 902.596 235.114 895.636C235.114 888.675 237.474 881.92 241.808 876.473C246.141 871.026 252.194 867.208 258.977 865.643C263.563 866.603 268.298 866.603 272.884 865.643C279.667 867.208 285.719 871.026 290.053 876.473C294.387 881.92 296.746 888.675 296.746 895.636C296.746 902.596 294.387 909.351 290.053 914.798C285.719 920.245 279.667 924.063 272.884 925.628Z" fill="#3F3D56"/>
<path id="Vector_48" d="M791.341 418.285H438.499C435.639 418.285 432.895 417.149 430.873 415.126C428.85 413.104 427.714 410.361 427.714 407.501C427.714 404.64 428.85 401.897 430.873 399.875C432.895 397.852 435.639 396.716 438.499 396.716H791.341C794.201 396.716 796.945 397.852 798.967 399.875C800.99 401.897 802.126 404.64 802.126 407.501C802.126 410.361 800.99 413.104 798.967 415.126C796.945 417.149 794.201 418.285 791.341 418.285V418.285Z" fill="#F2F2F2"/>
<path id="Vector_49" d="M791.341 529.211H438.499C435.639 529.211 432.895 528.075 430.873 526.053C428.85 524.03 427.714 521.287 427.714 518.427C427.714 515.567 428.85 512.824 430.873 510.801C432.895 508.779 435.639 507.642 438.499 507.642H791.341C794.201 507.642 796.945 508.779 798.967 510.801C800.99 512.824 802.126 515.567 802.126 518.427C802.126 521.287 800.99 524.03 798.967 526.053C796.945 528.075 794.201 529.211 791.341 529.211Z" fill="#F2F2F2"/>
<path id="Vector_50" d="M791.341 640.138H438.499C435.639 640.138 432.895 639.002 430.873 636.979C428.85 634.957 427.714 632.214 427.714 629.353C427.714 626.493 428.85 623.75 430.873 621.728C432.895 619.705 435.639 618.569 438.499 618.569H791.341C794.201 618.569 796.945 619.705 798.967 621.728C800.99 623.75 802.126 626.493 802.126 629.353C802.126 632.214 800.99 634.957 798.967 636.979C796.945 639.002 794.201 640.138 791.341 640.138Z" fill="#F2F2F2"/>
<path id="Vector_51" d="M791.341 751.064H438.499C435.639 751.064 432.895 749.928 430.873 747.906C428.85 745.883 427.714 743.14 427.714 740.28C427.714 737.42 428.85 734.677 430.873 732.654C432.895 730.632 435.639 729.495 438.499 729.495H791.341C794.201 729.495 796.945 730.632 798.967 732.654C800.99 734.677 802.126 737.42 802.126 740.28C802.126 743.14 800.99 745.883 798.967 747.906C796.945 749.928 794.201 751.064 791.341 751.064V751.064Z" fill="#F2F2F2"/>
<path id="Vector_52" d="M791.341 861.991H438.499C435.639 861.991 432.895 860.855 430.873 858.832C428.85 856.81 427.714 854.066 427.714 851.206C427.714 848.346 428.85 845.603 430.873 843.58C432.895 841.558 435.639 840.422 438.499 840.422H791.341C794.201 840.422 796.945 841.558 798.967 843.58C800.99 845.603 802.126 848.346 802.126 851.206C802.126 854.066 800.99 856.81 798.967 858.832C796.945 860.855 794.201 861.991 791.341 861.991Z" fill="#F2F2F2"/>
<path id="Vector_53" d="M937.716 396.716H934.635V418.285H937.716V396.716Z" fill="#FBD46D"/>
<path id="Vector_54" d="M960.828 419.826C958.39 419.826 956.007 419.103 953.98 417.749C951.953 416.394 950.373 414.469 949.44 412.217C948.507 409.965 948.263 407.487 948.739 405.096C949.214 402.705 950.388 400.509 952.112 398.785C953.836 397.062 956.032 395.888 958.423 395.412C960.815 394.937 963.293 395.181 965.545 396.114C967.798 397.046 969.723 398.626 971.077 400.653C972.432 402.68 973.154 405.063 973.154 407.501C973.151 410.768 971.851 413.901 969.54 416.212C967.229 418.522 964.096 419.822 960.828 419.826V419.826ZM960.828 398.257C959 398.257 957.212 398.799 955.692 399.815C954.172 400.83 952.987 402.274 952.287 403.963C951.587 405.652 951.404 407.511 951.761 409.304C952.118 411.097 952.998 412.744 954.291 414.037C955.584 415.33 957.231 416.21 959.025 416.567C960.818 416.923 962.677 416.74 964.366 416.041C966.055 415.341 967.499 414.156 968.515 412.636C969.531 411.116 970.073 409.329 970.073 407.501C970.07 405.05 969.095 402.7 967.362 400.967C965.629 399.234 963.279 398.259 960.828 398.257V398.257Z" fill="#FBD46D"/>
<path id="Vector_55" d="M937.716 507.642H934.635V529.211H937.716V507.642Z" fill="#FBD46D"/>
<path id="Vector_56" d="M960.828 530.752C958.39 530.752 956.007 530.029 953.98 528.675C951.953 527.321 950.373 525.396 949.44 523.144C948.507 520.891 948.263 518.413 948.739 516.022C949.214 513.632 950.388 511.435 952.112 509.712C953.836 507.988 956.032 506.814 958.423 506.339C960.815 505.863 963.293 506.107 965.545 507.04C967.798 507.973 969.723 509.553 971.077 511.579C972.432 513.606 973.154 515.989 973.154 518.427C973.151 521.695 971.851 524.827 969.54 527.138C967.229 529.449 964.096 530.748 960.828 530.752ZM960.828 509.183C959 509.183 957.212 509.725 955.692 510.741C954.172 511.757 952.987 513.2 952.287 514.889C951.587 516.579 951.404 518.437 951.761 520.23C952.118 522.023 952.998 523.671 954.291 524.963C955.584 526.256 957.231 527.137 959.025 527.493C960.818 527.85 962.677 527.667 964.366 526.967C966.055 526.268 967.499 525.083 968.515 523.563C969.531 522.042 970.073 520.255 970.073 518.427C970.07 515.976 969.095 513.626 967.362 511.893C965.629 510.161 963.279 509.186 960.828 509.183V509.183Z" fill="#FBD46D"/>
<path id="Vector_57" d="M937.716 618.569H934.635V640.138H937.716V618.569Z" fill="#FBD46D"/>
<path id="Vector_58" d="M960.828 641.679C958.39 641.679 956.007 640.956 953.98 639.601C951.953 638.247 950.373 636.322 949.44 634.07C948.507 631.818 948.263 629.34 948.739 626.949C949.214 624.558 950.388 622.362 952.112 620.638C953.836 618.914 956.032 617.741 958.423 617.265C960.815 616.79 963.293 617.034 965.545 617.966C967.798 618.899 969.723 620.479 971.077 622.506C972.432 624.533 973.154 626.916 973.154 629.353C973.151 632.621 971.851 635.754 969.54 638.064C967.229 640.375 964.096 641.675 960.828 641.679V641.679ZM960.828 620.11C959 620.11 957.212 620.652 955.692 621.667C954.172 622.683 952.987 624.127 952.287 625.816C951.587 627.505 951.404 629.364 951.761 631.157C952.118 632.95 952.998 634.597 954.291 635.89C955.584 637.183 957.231 638.063 959.025 638.42C960.818 638.776 962.677 638.593 964.366 637.894C966.055 637.194 967.499 636.009 968.515 634.489C969.531 632.969 970.073 631.182 970.073 629.353C970.07 626.903 969.095 624.553 967.362 622.82C965.629 621.087 963.279 620.112 960.828 620.11V620.11Z" fill="#FBD46D"/>
<path id="Vector_59" d="M937.716 729.495H934.635V751.064H937.716V729.495Z" fill="#FBD46D"/>
<path id="Vector_60" d="M960.828 752.605C958.39 752.605 956.007 751.882 953.98 750.528C951.953 749.174 950.373 747.249 949.44 744.996C948.507 742.744 948.263 740.266 948.739 737.875C949.214 735.484 950.388 733.288 952.112 731.565C953.836 729.841 956.032 728.667 958.423 728.191C960.815 727.716 963.293 727.96 965.545 728.893C967.798 729.826 969.723 731.405 971.077 733.432C972.432 735.459 973.154 737.842 973.154 740.28C973.151 743.547 971.851 746.68 969.54 748.991C967.229 751.301 964.096 752.601 960.828 752.605V752.605ZM960.828 731.036C959 731.036 957.212 731.578 955.692 732.594C954.172 733.609 952.987 735.053 952.287 736.742C951.587 738.431 951.404 740.29 951.761 742.083C952.118 743.876 952.998 745.523 954.291 746.816C955.584 748.109 957.231 748.989 959.025 749.346C960.818 749.703 962.677 749.52 964.366 748.82C966.055 748.12 967.499 746.936 968.515 745.415C969.531 743.895 970.073 742.108 970.073 740.28C970.07 737.829 969.095 735.479 967.362 733.746C965.629 732.013 963.279 731.039 960.828 731.036Z" fill="#FBD46D"/>
<path id="Vector_61" d="M937.716 840.422H934.635V861.991H937.716V840.422Z" fill="#FBD46D"/>
<path id="Vector_62" d="M960.828 863.531C958.39 863.531 956.007 862.809 953.98 861.454C951.953 860.1 950.373 858.175 949.44 855.923C948.507 853.671 948.263 851.192 948.739 848.802C949.214 846.411 950.388 844.215 952.112 842.491C953.836 840.767 956.032 839.593 958.423 839.118C960.815 838.642 963.293 838.886 965.545 839.819C967.798 840.752 969.723 842.332 971.077 844.359C972.432 846.386 973.154 848.768 973.154 851.206C973.151 854.474 971.851 857.607 969.54 859.917C967.229 862.228 964.096 863.528 960.828 863.531V863.531ZM960.828 841.962C959 841.962 957.212 842.504 955.692 843.52C954.172 844.536 952.987 845.98 952.287 847.669C951.587 849.358 951.404 851.216 951.761 853.01C952.118 854.803 952.998 856.45 954.291 857.743C955.584 859.035 957.231 859.916 959.025 860.272C960.818 860.629 962.677 860.446 964.366 859.746C966.055 859.047 967.499 857.862 968.515 856.342C969.531 854.822 970.073 853.034 970.073 851.206C970.07 848.755 969.095 846.406 967.362 844.673C965.629 842.94 963.279 841.965 960.828 841.962Z" fill="#FBD46D"/>
<path id="Vector_63" d="M699.664 306.588C705.62 306.588 710.449 301.76 710.449 295.804C710.449 289.848 705.62 285.019 699.664 285.019C693.707 285.019 688.878 289.848 688.878 295.804C688.878 301.76 693.707 306.588 699.664 306.588Z" fill="#3F3D56"/>
<path id="Vector_64" d="M699.664 21.569C705.62 21.569 710.449 16.7406 710.449 10.7845C710.449 4.82839 705.62 0 699.664 0C693.707 0 688.878 4.82839 688.878 10.7845C688.878 16.7406 693.707 21.569 699.664 21.569Z" fill="#3F3D56"/>
<path id="Vector_65" d="M701.205 10.7844H698.123V295.804H701.205V10.7844Z" fill="#3F3D56"/>
</g>
<g id="front-end">
<path id="Vector_66" d="M729.709 418.285H436.958C434.098 418.285 431.355 417.149 429.332 415.126C427.309 413.104 426.173 410.361 426.173 407.501C426.173 404.64 427.309 401.897 429.332 399.875C431.355 397.852 434.098 396.716 436.958 396.716H729.709C732.57 396.716 735.313 397.852 737.336 399.875C739.358 401.897 740.495 404.64 740.495 407.501C740.495 410.361 739.358 413.104 737.336 415.126C735.313 417.149 732.57 418.285 729.709 418.285Z" fill="#FBD46D"/>
<path id="Vector_67" d="M638.802 529.211H436.958C434.098 529.211 431.355 528.075 429.332 526.053C427.309 524.03 426.173 521.287 426.173 518.427C426.173 515.567 427.309 512.824 429.332 510.801C431.355 508.779 434.098 507.642 436.958 507.642H638.802C641.663 507.642 644.406 508.779 646.429 510.801C648.452 512.824 649.588 515.567 649.588 518.427C649.588 521.287 648.452 524.03 646.429 526.053C644.406 528.075 641.663 529.211 638.802 529.211Z" fill="#FBD46D"/>
<path id="Vector_68" d="M527.865 640.138H436.958C434.098 640.138 431.355 639.002 429.332 636.979C427.309 634.957 426.173 632.214 426.173 629.353C426.173 626.493 427.309 623.75 429.332 621.728C431.355 619.705 434.098 618.569 436.958 618.569H527.865C530.726 618.569 533.469 619.705 535.492 621.728C537.514 623.75 538.651 626.493 538.651 629.353C538.651 632.214 537.514 634.957 535.492 636.979C533.469 639.002 530.726 640.138 527.865 640.138V640.138Z" fill="#FBD46D"/>
<path id="Vector_69" d="M757.443 751.064H436.958C434.098 751.064 431.355 749.928 429.332 747.906C427.309 745.883 426.173 743.14 426.173 740.28C426.173 737.42 427.309 734.677 429.332 732.654C431.355 730.632 434.098 729.495 436.958 729.495H757.443C760.304 729.495 763.047 730.632 765.07 732.654C767.093 734.677 768.229 737.42 768.229 740.28C768.229 743.14 767.093 745.883 765.07 747.906C763.047 749.928 760.304 751.064 757.443 751.064V751.064Z" fill="#FBD46D"/>
<path id="Vector_70" d="M686.567 861.991H436.958C434.098 861.991 431.355 860.855 429.332 858.832C427.309 856.81 426.173 854.066 426.173 851.206C426.173 848.346 427.309 845.603 429.332 843.58C431.355 841.558 434.098 840.422 436.958 840.422H686.567C689.427 840.422 692.171 841.558 694.194 843.58C696.216 845.603 697.353 848.346 697.353 851.206C697.353 854.066 696.216 856.81 694.194 858.832C692.171 860.855 689.427 861.991 686.567 861.991V861.991Z" fill="#FBD46D"/>
<path id="Vector_71" d="M266.071 850.229C275.779 850.229 283.649 842.36 283.649 832.652C283.649 822.945 275.779 815.075 266.071 815.075C256.362 815.075 248.492 822.945 248.492 832.652C248.492 842.36 256.362 850.229 266.071 850.229Z" fill="#FBD46D"/>
<path id="Vector_72" d="M960.828 413.663C964.232 413.663 966.992 410.904 966.992 407.501C966.992 404.097 964.232 401.338 960.828 401.338C957.425 401.338 954.665 404.097 954.665 407.501C954.665 410.904 957.425 413.663 960.828 413.663Z" fill="#FBD46D"/>
<path id="Vector_73" d="M960.828 746.442C964.232 746.442 966.992 743.683 966.992 740.28C966.992 736.876 964.232 734.117 960.828 734.117C957.425 734.117 954.665 736.876 954.665 740.28C954.665 743.683 957.425 746.442 960.828 746.442Z" fill="#FBD46D"/>
<path id="Vector_74" d="M960.828 857.369C964.232 857.369 966.992 854.61 966.992 851.206C966.992 847.803 964.232 845.044 960.828 845.044C957.425 845.044 954.665 847.803 954.665 851.206C954.665 854.61 957.425 857.369 960.828 857.369Z" fill="#FBD46D"/>
</g>
<g id="man">
<path id="Vector_75" d="M1323.86 592.346V630.515C1323.86 630.515 1333.05 692.01 1333.05 745.729C1333.05 799.449 1318.21 924.56 1318.21 924.56C1318.21 924.56 1288.52 935.162 1286.4 918.905C1284.28 902.648 1278.62 816.413 1278.62 803.69C1278.62 790.967 1253.88 694.13 1253.88 694.13L1238.33 801.57C1238.33 801.57 1243.28 928.801 1238.33 932.335C1233.38 935.869 1209.35 942.231 1206.52 935.869C1203.69 929.507 1188.85 793.088 1188.85 793.088C1188.85 793.088 1176.83 614.964 1183.9 604.362C1190.97 593.759 1197.33 585.277 1197.33 585.277C1197.33 585.277 1298.42 560.538 1323.86 592.346Z" fill="#2F2E41"/>
<path id="Vector_76" d="M1314.68 920.319L1316.45 931.841C1317.04 935.771 1317.43 939.731 1317.61 943.702C1317.88 949.49 1318.85 958.408 1322.14 959.822C1327.09 961.942 1359.21 989.026 1336.59 990.439C1313.97 991.853 1302.65 994.295 1295.95 989.094C1288.03 982.944 1297 985.729 1293.47 985.729C1289.93 985.729 1285.69 985.729 1284.28 980.074C1282.86 974.419 1286.4 964.523 1286.4 964.523V920.319H1314.68Z" fill="#2F2E41"/>
<path id="Vector_77" d="M1209.12 919.765L1207.35 931.287C1206.76 935.218 1206.37 939.177 1206.19 943.148C1205.92 948.936 1204.95 957.854 1201.66 959.268C1196.71 961.388 1164.59 988.472 1187.21 989.886C1209.83 991.3 1221.15 993.742 1227.85 988.54C1235.77 982.391 1226.8 985.175 1230.33 985.175C1233.87 985.175 1238.11 985.175 1239.52 979.52C1240.94 973.866 1237.4 963.97 1237.4 963.97V919.765H1209.12Z" fill="#2F2E41"/>
<path id="Vector_78" d="M1229.14 285.578C1229.14 285.578 1241.16 315.265 1249.64 320.213C1258.12 325.161 1253.88 347.779 1253.88 347.779L1232.67 377.467H1215.71L1195.21 342.125C1195.21 342.125 1193.79 318.799 1189.55 313.144C1185.31 307.49 1229.14 285.578 1229.14 285.578Z" fill="#FFB9B9"/>
<path id="Vector_79" opacity="0.1" d="M1229.14 285.578C1229.14 285.578 1241.16 315.265 1249.64 320.213C1258.12 325.161 1253.88 347.779 1253.88 347.779L1232.67 377.467H1215.71L1195.21 342.125C1195.21 342.125 1193.79 318.799 1189.55 313.144C1185.31 307.49 1229.14 285.578 1229.14 285.578Z" fill="black"/>
<path id="Vector_80" d="M1246.81 346.366L1278.62 353.434L1301.95 588.105C1301.95 588.105 1289.23 590.225 1276.5 607.189C1263.78 624.153 1248.23 621.326 1240.45 617.085C1232.67 612.844 1201.57 600.828 1200.86 595.88C1200.16 590.932 1202.28 503.991 1202.28 503.991L1182.48 368.278L1192.38 353.434H1210.05L1224.19 365.45L1246.81 346.366Z" fill="#FBD46D"/>
<path id="Vector_81" d="M1198.74 322.333C1219.04 322.333 1235.5 305.877 1235.5 285.578C1235.5 265.278 1219.04 248.822 1198.74 248.822C1178.44 248.822 1161.98 265.278 1161.98 285.578C1161.98 305.877 1178.44 322.333 1198.74 322.333Z" fill="#FFB9B9"/>
<path id="Vector_82" d="M1251.76 334.349C1251.76 334.349 1321.04 341.418 1327.4 356.261C1333.76 371.105 1323.16 436.841 1323.16 436.841C1323.16 436.841 1348.61 494.095 1347.9 507.525C1347.19 520.955 1371.93 612.844 1345.07 602.241C1318.21 591.639 1326.69 564.072 1313.26 583.863C1299.83 603.655 1294.17 600.828 1294.17 600.828C1294.17 600.828 1280.74 622.74 1276.5 620.619C1272.26 618.499 1269.43 602.241 1278.62 594.466C1287.81 586.691 1286.4 573.261 1268.73 547.815C1251.05 522.368 1232.67 388.776 1243.28 368.278C1253.88 347.779 1251.76 334.349 1251.76 334.349Z" fill="#575A89"/>
<path id="Vector_83" d="M1323.87 605.775L1311.85 617.085L1297 607.19L1303.37 592.346L1323.87 605.775Z" fill="#FFB9B9"/>
<path id="Vector_84" d="M1200.86 346.366C1200.86 346.366 1147.14 366.157 1147.14 387.362C1147.14 408.567 1179.66 501.163 1179.66 501.163C1179.66 501.163 1179.66 525.196 1178.24 530.851C1176.83 536.505 1154.59 585.825 1174 590.225C1186.12 592.972 1196.08 600.187 1196.98 610.37C1198.04 622.462 1188.79 637.725 1189.55 640.411C1190.97 645.358 1199.45 652.427 1198.74 648.893C1198.04 645.358 1204.4 594.466 1214.29 571.847C1224.19 549.228 1210.05 397.258 1207.23 377.467C1205.86 366.959 1203.73 356.565 1200.86 346.366V346.366Z" fill="#575A89"/>
<path id="Vector_85" d="M1172.59 604.361L1185.31 634.756L1194.85 615.318L1183.9 590.931L1172.59 604.361Z" fill="#FFB9B9"/>
<path id="Vector_86" d="M1240.15 308.349C1240.15 308.349 1251.76 313.144 1258.83 313.144C1265.9 313.144 1294.88 327.988 1284.98 337.177C1275.09 346.366 1260.24 348.486 1253.17 361.916C1246.1 375.346 1242.57 377.467 1242.57 377.467L1229.98 360.562C1229.98 360.562 1247.52 340.711 1246.81 334.349C1246.1 327.988 1240.15 308.349 1240.15 308.349Z" fill="#FBD46D"/>
<path id="Vector_87" d="M1193.3 325.344C1193.3 325.344 1184.6 328.695 1182.48 334.349C1180.36 340.004 1166.93 350.607 1172.59 353.434C1178.24 356.261 1202.98 367.571 1207.93 369.691C1212.88 371.812 1222.1 363.675 1222.1 363.675C1222.1 363.675 1209.7 356.615 1209.7 351.667C1209.7 346.719 1193.3 325.344 1193.3 325.344Z" fill="#FBD46D"/>
<path id="Vector_88" d="M1164.1 377.467L1147.14 381.708C1147.14 381.708 1123.81 486.32 1130.88 512.473C1137.95 538.626 1171.17 617.085 1171.17 617.085L1192.38 592.346C1192.38 592.346 1183.13 536.089 1177.86 532.409C1172.59 528.73 1176.12 520.955 1176.12 518.834C1176.12 516.714 1178.24 518.128 1173.29 513.18C1168.35 508.232 1191.67 480.665 1185.31 472.89C1178.95 465.115 1164.1 377.467 1164.1 377.467Z" fill="#575A89"/>
<path id="Vector_89" opacity="0.1" d="M1331.29 396.905L1321.04 358.382C1321.04 358.382 1348.61 378.173 1354.26 407.154C1359.92 436.134 1381.83 494.095 1367.69 519.541C1353.55 544.987 1328.81 618.499 1320.33 617.085C1311.85 615.671 1291.35 598 1290.64 595.173C1289.93 592.346 1327.4 527.316 1321.74 522.369C1316.09 517.421 1317.5 504.698 1321.74 501.87C1325.99 499.043 1330.93 485.613 1327.4 486.32C1323.86 487.027 1313.26 479.958 1315.38 472.183C1317.5 464.408 1304.78 412.102 1304.78 412.102L1331.29 396.905Z" fill="black"/>
<path id="Vector_90" d="M1317.5 353.434L1327.4 356.261C1327.4 356.261 1354.97 376.053 1360.62 405.033C1366.28 434.014 1388.19 491.974 1374.06 517.421C1359.92 542.867 1335.18 616.378 1326.69 614.964C1318.21 613.551 1297.71 595.88 1297 593.052C1296.3 590.225 1333.76 525.196 1328.11 520.248C1322.45 515.3 1323.86 502.577 1328.11 499.75C1332.35 496.922 1337.3 483.492 1333.76 484.199C1330.23 484.906 1319.62 477.838 1321.74 470.063C1323.86 462.287 1311.14 409.981 1311.14 409.981L1317.5 353.434Z" fill="#575A89"/>
<path id="Vector_91" d="M1227.27 252.4L1234.16 249.893C1234.16 249.893 1219.75 235.479 1199.69 236.732L1205.33 231.092C1205.33 231.092 1191.54 226.078 1179.01 239.239C1172.42 246.157 1164.79 254.289 1160.04 263.45H1152.66L1155.74 269.613L1144.95 275.775L1156.02 274.668C1154.97 279.989 1155.34 285.491 1157.07 290.629L1159.58 297.523C1159.58 297.523 1169.61 277.468 1169.61 274.961V281.228C1169.61 281.228 1176.5 275.588 1176.5 271.828L1180.26 276.215L1182.14 269.321L1205.33 276.215L1201.57 270.574L1215.99 272.454L1210.35 265.561C1210.35 265.561 1226.64 273.708 1227.27 280.602C1227.9 287.495 1236.04 296.269 1236.04 296.269L1239.8 290.002C1239.8 290.002 1245.44 261.8 1227.27 252.4Z" fill="#2F2E41"/>
<path id="Vector_92" d="M1225.84 289.641C1228.82 289.641 1231.24 285.847 1231.24 281.168C1231.24 276.488 1228.82 272.694 1225.84 272.694C1222.87 272.694 1220.45 276.488 1220.45 281.168C1220.45 285.847 1222.87 289.641 1225.84 289.641Z" fill="#FFB9B9"/>
</g>
</g>
<defs>
<filter id="filter0_d" x="0" y="0" width="1434" height="1002" filterUnits="userSpaceOnUse" color-interpolation-filters="sRGB">
<feFlood flood-opacity="0" result="BackgroundImageFix"/>
<feColorMatrix in="SourceAlpha" type="matrix" values="0 0 0 0 0 0 0 0 0 0 0 0 0 0 0 0 0 0 127 0"/>
<feOffset dy="4"/>
<feGaussianBlur stdDeviation="2"/>
<feColorMatrix type="matrix" values="0 0 0 0 0 0 0 0 0 0 0 0 0 0 0 0 0 0 0.25 0"/>
<feBlend mode="normal" in2="BackgroundImageFix" result="effect1_dropShadow"/>
<feBlend mode="normal" in="SourceGraphic" in2="effect1_dropShadow" result="shape"/>
</filter>
<linearGradient id="paint0_linear" x1="488.501" y1="637.95" x2="396.145" y2="1062.78" gradientUnits="userSpaceOnUse">
<stop stop-color="#4F8A8B"/>
<stop offset="0.760417" stop-color="#222222"/>
</linearGradient>
<clipPath id="clip0">
<rect width="1426" height="994" fill="white" transform="translate(4)"/>
</clipPath>
</defs>
</svg>
